<svg width="130" height="130" viewBox="0 0 130 130" fill="none" xmlns="http://www.w3.org/2000/svg">
<path d="M11.5839 36.319C12.6133 34.9208 12.7909 33.8391 12.8646 31.1459C12.9383 33.8391 13.1158 34.9208 14.1453 36.319C14.5481 36.8662 14.5481 37.613 14.1453 38.1602C13.1158 39.5584 12.9383 40.6401 12.8646 43.3334C12.7909 40.6401 12.6133 39.5584 11.5839 38.1602C11.1811 37.613 11.1811 36.8662 11.5839 36.319Z" fill="#364684"/>
<path d="M119.933 116.228C122.08 113.566 122.418 111.861 122.552 106.979C122.686 111.861 123.024 113.566 125.171 116.228C125.597 116.757 125.597 117.514 125.171 118.043C123.024 120.705 122.686 122.41 122.552 127.292C122.418 122.41 122.08 120.705 119.933 118.043C119.507 117.514 119.507 116.757 119.933 116.228Z" fill="#364684"/>
<path fill-rule="evenodd" clip-rule="evenodd" d="M101.476 52.1354H88.1077C87.3118 52.1354 86.6667 52.7806 86.6667 53.5765V67.6215C86.6667 68.4173 87.3118 69.0625 88.1077 69.0625H101.476C102.271 69.0625 102.917 68.4173 102.917 67.6215V53.5765C102.917 52.7806 102.271 52.1354 101.476 52.1354ZM97.8633 63.8225C97.4758 63.8225 97.1483 63.5056 97.2119 63.1233C97.2382 62.9658 97.2747 62.8275 97.3214 62.7085C97.428 62.434 97.6007 62.1967 97.8397 61.9965C98.0786 61.7963 98.2595 61.6138 98.3822 61.4491C98.5081 61.2812 98.5711 61.0972 98.5711 60.897C98.5711 60.4094 98.3612 60.1656 97.9414 60.1656C97.7477 60.1656 97.5911 60.2366 97.4716 60.3787L97.4346 60.4229C97.223 60.6758 96.9894 60.9551 96.6643 60.9551H96.4791C96.0201 60.9551 95.6242 60.5673 95.7859 60.1377C95.8875 59.8679 96.0442 59.6382 96.2558 59.4487C96.6562 59.0871 97.2181 58.9063 97.9414 58.9063C98.6615 58.9063 99.2185 59.0726 99.6124 59.4052C100.01 59.7377 100.208 60.2108 100.208 60.8243C100.208 61.0923 100.155 61.3361 100.048 61.5557C99.9418 61.7753 99.7707 61.9997 99.5349 62.229L98.9779 62.7472C98.8197 62.899 98.7099 63.0556 98.6486 63.217C98.5245 63.5371 98.2733 63.8225 97.93 63.8225H97.8633ZM96.963 65.2949C96.963 65.056 97.0486 64.8606 97.2197 64.7089C97.3941 64.5539 97.6104 64.4764 97.8688 64.4764C98.1271 64.4764 98.3418 64.5539 98.5129 64.7089C98.6873 64.8606 98.7745 65.056 98.7745 65.2949C98.7745 65.5339 98.6873 65.7309 98.5129 65.8859C98.3418 66.0376 98.1271 66.1135 97.8688 66.1135C97.6104 66.1135 97.3941 66.0376 97.2197 65.8859C97.0486 65.7309 96.963 65.5339 96.963 65.2949ZM90.0521 54.8438C89.6781 54.8438 89.375 55.1469 89.375 55.5209C89.375 55.8948 89.6781 56.1979 90.0521 56.1979H99.5312C99.9052 56.1979 100.208 55.8948 100.208 55.5209C100.208 55.1469 99.9052 54.8438 99.5312 54.8438H90.0521ZM90.0521 58.2292C89.6781 58.2292 89.375 58.5323 89.375 58.9063C89.375 59.2802 89.6781 59.5834 90.0521 59.5834H94.7917C95.1656 59.5834 95.4687 59.2802 95.4687 58.9063C95.4687 58.5323 95.1656 58.2292 94.7917 58.2292H90.0521ZM90.0521 61.6146C89.6781 61.6146 89.375 61.9177 89.375 62.2917C89.375 62.6656 89.6781 62.9688 90.0521 62.9688H94.7917C95.1656 62.9688 95.4687 62.6656 95.4687 62.2917C95.4687 61.9177 95.1656 61.6146 94.7917 61.6146H90.0521ZM90.0521 65C89.6781 65 89.375 65.3032 89.375 65.6771C89.375 66.051 89.6781 66.3542 90.0521 66.3542H95.4687C95.8427 66.3542 96.1458 66.051 96.1458 65.6771C96.1458 65.3032 95.8427 65 95.4687 65H90.0521Z" fill="#364684"/>
<path d="M54.5986 19.64C53.7747 19.64 53.0785 18.9851 53.2139 18.195C53.2697 17.8693 53.3472 17.5835 53.4466 17.3375C53.6732 16.7703 54.0404 16.2797 54.5484 15.866C55.0563 15.4522 55.4407 15.0751 55.7016 14.7348C55.9693 14.3877 56.1031 14.0073 56.1031 13.5936C56.1031 12.5858 55.6569 12.082 54.7646 12.082C54.3527 12.082 54.0198 12.2288 53.7658 12.5224C53.295 13.0668 52.7813 13.7137 52.0498 13.7137H51.6561C50.6803 13.7137 49.8387 12.9122 50.1825 12.0244C50.3984 11.4667 50.7314 10.992 51.1814 10.6004C52.0326 9.85292 53.227 9.47919 54.7646 9.47919C56.2953 9.47919 57.4794 9.82289 58.3169 10.5103C59.1612 11.1977 59.5833 12.1754 59.5833 13.4434C59.5833 13.9973 59.4701 14.5012 59.2435 14.955C59.017 15.4088 58.6532 15.8726 58.1521 16.3465L56.968 17.4176C56.6317 17.7313 56.3983 18.055 56.2679 18.3887C56.0041 19.0501 55.4701 19.64 54.7403 19.64H54.5986ZM52.6847 22.6832C52.6847 22.1894 52.8666 21.7856 53.2304 21.4719C53.6011 21.1516 54.061 20.9914 54.6101 20.9914C55.1593 20.9914 55.6158 21.1516 55.9796 21.4719C56.3502 21.7856 56.5356 22.1894 56.5356 22.6832C56.5356 23.1771 56.3502 23.5842 55.9796 23.9045C55.6158 24.2182 55.1593 24.375 54.6101 24.375C54.061 24.375 53.6011 24.2182 53.2304 23.9045C52.8666 23.5842 52.6847 23.1771 52.6847 22.6832Z" fill="#364684"/>
<path d="M12.6195 119.848C11.7956 119.848 11.0994 119.193 11.2347 118.403C11.2905 118.078 11.3681 117.792 11.4675 117.546C11.694 116.979 12.0612 116.488 12.5692 116.074C13.0772 115.661 13.4616 115.283 13.7224 114.943C13.9901 114.596 14.124 114.216 14.124 113.802C14.124 112.794 13.6778 112.29 12.7854 112.29C12.3736 112.29 12.0406 112.437 11.7867 112.731C11.3158 113.275 10.8022 113.922 10.0706 113.922H9.67689C8.70112 113.922 7.85956 113.121 8.20334 112.233C8.41927 111.675 8.75224 111.2 9.20225 110.809C10.0534 110.061 11.2478 109.688 12.7854 109.688C14.3162 109.688 15.5003 110.031 16.3377 110.719C17.182 111.406 17.6042 112.384 17.6042 113.652C17.6042 114.206 17.4909 114.71 17.2644 115.163C17.0379 115.617 16.6741 116.081 16.173 116.555L14.9889 117.626C14.6525 117.94 14.4191 118.263 14.2887 118.597C14.0249 119.258 13.4909 119.848 12.7612 119.848H12.6195ZM10.7055 122.892C10.7055 122.398 10.8874 121.994 11.2512 121.68C11.6219 121.36 12.0818 121.2 12.631 121.2C13.1801 121.2 13.6366 121.36 14.0004 121.68C14.3711 121.994 14.5564 122.398 14.5564 122.892C14.5564 123.385 14.3711 123.793 14.0004 124.113C13.6366 124.427 13.1801 124.583 12.631 124.583C12.0818 124.583 11.6219 124.427 11.2512 124.113C10.8874 123.793 10.7055 123.385 10.7055 122.892Z" fill="#364684"/>
<path d="M6.77029 2.70831L7.27008 2.69383C7.26225 2.42344 7.04079 2.20831 6.77029 2.20831C6.49979 2.20831 6.27834 2.42344 6.2705 2.69383L6.77029 2.70831ZM3.54836 13.2825L3.16969 12.956H3.16969L3.54836 13.2825ZM9.99222 13.2825L10.3709 12.956L9.99222 13.2825ZM6.77029 25.7291L6.2705 25.7436C6.27834 26.014 6.49979 26.2291 6.77029 26.2291C7.04079 26.2291 7.26225 26.014 7.27008 25.7436L6.77029 25.7291ZM3.54836 15.1549L3.16969 15.4814H3.16969L3.54836 15.1549ZM9.99222 15.1549L10.3709 15.4814L9.99222 15.1549ZM19.6349 18.9583L20.1347 18.9446C20.1273 18.6739 19.9057 18.4583 19.6349 18.4583C19.3641 18.4583 19.1425 18.6739 19.1351 18.9446L19.6349 18.9583ZM18.3542 24.1315L17.9515 23.8351L18.3542 24.1315ZM20.9156 24.1315L20.5129 24.4279L20.9156 24.1315ZM19.6349 31.1458L19.1351 31.1595C19.1425 31.4302 19.3641 31.6458 19.6349 31.6458C19.9057 31.6458 20.1273 31.4302 20.1347 31.1595L19.6349 31.1458ZM18.3542 25.9726L18.7568 25.6762L18.3542 25.9726ZM20.9156 25.9726L20.5129 25.6762L20.9156 25.9726ZM96.8224 111.042L97.3222 111.028C97.3148 110.757 97.0932 110.542 96.8224 110.542C96.5516 110.542 96.33 110.757 96.3226 111.028L96.8224 111.042ZM95.5417 116.215L95.139 115.918L95.5417 116.215ZM98.1031 116.215L97.7004 116.511L98.1031 116.215ZM96.8224 123.229L96.3226 123.243C96.33 123.514 96.5516 123.729 96.8224 123.729C97.0932 123.729 97.3148 123.514 97.3222 123.243L96.8224 123.229ZM95.5417 118.056L95.9443 117.759L95.5417 118.056ZM98.1031 118.056L97.7004 117.759L98.1031 118.056ZM111.718 85.3125L112.218 85.2988C112.211 85.0281 111.989 84.8125 111.718 84.8125C111.447 84.8125 111.226 85.0281 111.218 85.2988L111.718 85.3125ZM109.099 94.5611L108.71 94.2472L109.099 94.5611ZM114.337 94.5611L113.948 94.875H113.948L114.337 94.5611ZM111.718 105.625L111.218 105.639C111.226 105.909 111.447 106.125 111.718 106.125C111.989 106.125 112.211 105.909 112.218 105.639L111.718 105.625ZM109.099 96.3763L108.71 96.6902L109.099 96.3763ZM114.337 96.3763L114.726 96.6902L114.337 96.3763ZM120.843 42.0372L120.915 42.532L120.843 42.0372ZM127.315 46.6557L126.821 46.7336L127.315 46.6557ZM127.206 74.5422L127.696 74.6404L127.206 74.5422ZM122.547 78.5957L122.513 78.0968L122.513 78.0969L122.547 78.5957ZM78.9961 85.0044L79.3474 85.3602L78.9961 85.0044ZM52.4377 104.025L52.4044 104.524L52.4377 104.025ZM28.2719 103.037L27.9128 103.384L28.2719 103.037ZM17.7443 91.6739L17.2563 91.5648L17.7443 91.6739ZM51.4903 93.6559C51.7664 93.6505 51.9859 93.4223 51.9805 93.1462C51.9751 92.8701 51.7469 92.6507 51.4708 92.6561L51.4903 93.6559ZM33.5357 94.391L33.628 94.8825L33.5357 94.391ZM26.5971 79.8171L26.4601 79.3361L26.4503 79.3391L26.5971 79.8171ZM33.6727 78.3219C33.9383 78.2462 34.0923 77.9696 34.0166 77.704C33.941 77.4384 33.6644 77.2845 33.3988 77.3601L33.6727 78.3219ZM24.2044 80.8184L24.4391 81.2598L24.2044 80.8184ZM21.3332 73.1477L20.8531 73.0082L21.3332 73.1477ZM32.7346 64.3144C32.9038 64.0961 32.864 63.782 32.6457 63.6129C32.4274 63.4437 32.1133 63.4836 31.9442 63.7018L32.7346 64.3144ZM28.2719 57.5857L28.6239 57.9408L28.2719 57.5857ZM29.7075 56.1511L30.0625 56.5032L29.7075 56.1511ZM36.0936 49.9751C36.2559 49.7516 36.2064 49.439 35.983 49.2767C35.7596 49.1144 35.4469 49.1639 35.2846 49.3873L36.0936 49.9751ZM30.6646 50.9163L31.0598 51.2225L30.6646 50.9163ZM38.0818 41.5297L38.2067 42.0138L38.0818 41.5297ZM71.1003 41.5297L71.2808 41.0634L71.1003 41.5297ZM89.277 34.5834C89.3858 34.8372 89.6797 34.9548 89.9336 34.846C90.1874 34.7372 90.3049 34.4433 90.1962 34.1895L89.277 34.5834ZM81.5498 14.0146C81.441 13.7608 81.1471 13.6432 80.8932 13.752C80.6394 13.8607 80.5219 14.1547 80.6306 14.4085L81.5498 14.0146ZM95.0434 31.3025C94.9319 31.5551 95.0464 31.8503 95.299 31.9618C95.5517 32.0732 95.8469 31.9588 95.9583 31.7061L95.0434 31.3025ZM106.766 7.20803C106.878 6.95538 106.763 6.66021 106.511 6.54875C106.258 6.43729 105.963 6.55174 105.851 6.80439L106.766 7.20803ZM90.1838 86.4884C90.3073 86.2414 90.2072 85.9411 89.9602 85.8176C89.7132 85.6941 89.4129 85.7942 89.2894 86.0412L90.1838 86.4884ZM74.8787 114.862C74.7552 115.109 74.8554 115.41 75.1023 115.533C75.3493 115.657 75.6497 115.557 75.7732 115.31L74.8787 114.862ZM95.9792 86.1192C95.8988 85.855 95.6195 85.706 95.3553 85.7864C95.0911 85.8669 94.9421 86.1462 95.0225 86.4104L95.9792 86.1192ZM100.066 102.983C100.147 103.247 100.426 103.396 100.69 103.315C100.954 103.235 101.103 102.956 101.023 102.691L100.066 102.983ZM6.2705 2.69383C6.18944 5.49086 6.04562 7.30774 5.61126 8.80029C5.18343 10.2704 4.46448 11.4544 3.16969 12.956L3.92704 13.609C5.2796 12.0404 6.09063 10.7319 6.57143 9.07972C7.04569 7.45003 7.18916 5.51495 7.27008 2.7228L6.2705 2.69383ZM6.2705 2.7228C6.35143 5.51495 6.49489 7.45003 6.96916 9.07972C7.44996 10.7319 8.26098 12.0404 9.61355 13.609L10.3709 12.956C9.0761 11.4544 8.35715 10.2704 7.92933 8.80029C7.49497 7.30774 7.35115 5.49086 7.27008 2.69383L6.2705 2.7228ZM7.27008 25.7147C7.18916 22.9225 7.04569 20.9874 6.57143 19.3577C6.09063 17.7056 5.2796 16.3971 3.92704 14.8284L3.16969 15.4814C4.46448 16.9831 5.18343 18.1671 5.61126 19.6372C6.04562 21.1297 6.18944 22.9466 6.2705 25.7436L7.27008 25.7147ZM7.27008 25.7436C7.35115 22.9466 7.49497 21.1297 7.92933 19.6372C8.35715 18.1671 9.0761 16.9831 10.3709 15.4814L9.61355 14.8284C8.26098 16.3971 7.44996 17.7056 6.96916 19.3577C6.49489 20.9874 6.35143 22.9225 6.2705 25.7147L7.27008 25.7436ZM9.61355 13.609C9.9147 13.9583 9.9147 14.4791 9.61355 14.8284L10.3709 15.4814C10.9956 14.7569 10.9956 13.6805 10.3709 12.956L9.61355 13.609ZM3.16969 12.956C2.545 13.6805 2.545 14.7569 3.16969 15.4814L3.92704 14.8284C3.62588 14.4791 3.62588 13.9583 3.92704 13.609L3.16969 12.956ZM19.1351 18.9446C19.0982 20.2921 19.0355 21.1898 18.866 21.917C18.7012 22.6238 18.4319 23.1826 17.9515 23.8351L18.7568 24.4279C19.3059 23.6821 19.6401 23.0009 19.8399 22.1441C20.0349 21.3075 20.0979 20.3178 20.1347 18.972L19.1351 18.9446ZM19.1351 18.972C19.1719 20.3178 19.2349 21.3075 19.4299 22.1441C19.6297 23.0009 19.9638 23.6821 20.5129 24.4279L21.3182 23.8351C20.8379 23.1826 20.5686 22.6238 20.4038 21.917C20.2342 21.1898 20.1716 20.2921 20.1347 18.9446L19.1351 18.972ZM20.1347 31.1321C20.0979 29.7864 20.0349 28.7966 19.8399 27.9601C19.6401 27.1032 19.3059 26.422 18.7568 25.6762L17.9515 26.2691C18.4319 26.9215 18.7012 27.4803 18.866 28.1871C19.0355 28.9143 19.0982 29.812 19.1351 31.1595L20.1347 31.1321ZM20.1347 31.1595C20.1716 29.812 20.2342 28.9143 20.4038 28.1871C20.5686 27.4803 20.8379 26.9215 21.3182 26.2691L20.5129 25.6762C19.9638 26.422 19.6297 27.1032 19.4299 27.9601C19.2349 28.7966 19.1719 29.7864 19.1351 31.1321L20.1347 31.1595ZM20.5129 24.4279C20.7859 24.7988 20.7859 25.3053 20.5129 25.6762L21.3182 26.2691C21.8509 25.5456 21.8509 24.5585 21.3182 23.8351L20.5129 24.4279ZM17.9515 23.8351C17.4189 24.5585 17.4189 25.5456 17.9515 26.2691L18.7568 25.6762C18.4838 25.3053 18.4838 24.7988 18.7568 24.4279L17.9515 23.8351ZM96.3226 111.028C96.2857 112.375 96.223 113.273 96.0535 114C95.8887 114.707 95.6194 115.266 95.139 115.918L95.9443 116.511C96.4934 115.765 96.8276 115.084 97.0274 114.227C97.2224 113.391 97.2853 112.401 97.3222 111.055L96.3226 111.028ZM96.3226 111.055C96.3594 112.401 96.4223 113.391 96.6174 114.227C96.8171 115.084 97.1513 115.765 97.7004 116.511L98.5057 115.918C98.0254 115.266 97.756 114.707 97.5913 114C97.4217 113.273 97.3591 112.375 97.3222 111.028L96.3226 111.055ZM97.3222 123.215C97.2853 121.87 97.2224 120.88 97.0274 120.043C96.8276 119.186 96.4934 118.505 95.9443 117.759L95.139 118.352C95.6194 119.005 95.8887 119.564 96.0535 120.27C96.223 120.998 96.2857 121.895 96.3226 123.243L97.3222 123.215ZM97.3222 123.243C97.3591 121.895 97.4217 120.998 97.5913 120.27C97.756 119.564 98.0254 119.005 98.5057 118.352L97.7004 117.759C97.1513 118.505 96.8171 119.186 96.6174 120.043C96.4223 120.88 96.3594 121.87 96.3226 123.215L97.3222 123.243ZM97.7004 116.511C97.9734 116.882 97.9734 117.389 97.7004 117.759L98.5057 118.352C99.0383 117.629 99.0383 116.642 98.5057 115.918L97.7004 116.511ZM95.139 115.918C94.6064 116.642 94.6064 117.629 95.139 118.352L95.9443 117.759C95.6713 117.389 95.6713 116.882 95.9443 116.511L95.139 115.918ZM111.218 85.2988C111.152 87.7421 111.033 89.3339 110.681 90.639C110.335 91.9219 109.755 92.9523 108.71 94.2472L109.489 94.875C110.591 93.508 111.254 92.3551 111.646 90.8996C112.033 89.4664 112.151 87.7648 112.218 85.3261L111.218 85.2988ZM111.218 85.3261C111.285 87.7648 111.403 89.4664 111.79 90.8996C112.183 92.3551 112.845 93.508 113.948 94.875L114.726 94.2472C113.682 92.9523 113.102 91.9219 112.755 90.639C112.403 89.3339 112.285 87.7421 112.218 85.2988L111.218 85.3261ZM112.218 105.611C112.151 103.173 112.033 101.471 111.646 100.038C111.254 98.5824 110.591 97.4294 109.489 96.0624L108.71 96.6902C109.755 97.9851 110.335 99.0155 110.681 100.298C111.033 101.604 111.152 103.195 111.218 105.639L112.218 105.611ZM112.218 105.639C112.285 103.195 112.403 101.604 112.755 100.298C113.102 99.0155 113.682 97.9851 114.726 96.6902L113.948 96.0624C112.845 97.4294 112.183 98.5824 111.79 100.038C111.403 101.471 111.285 103.173 111.218 105.611L112.218 105.639ZM113.948 94.875C114.227 95.2207 114.227 95.7167 113.948 96.0624L114.726 96.6902C115.301 95.9782 115.301 94.9593 114.726 94.2472L113.948 94.875ZM108.71 94.2472C108.136 94.9593 108.136 95.9782 108.71 96.6902L109.489 96.0624C109.21 95.7167 109.21 95.2207 109.489 94.875L108.71 94.2472ZM104.368 53.242V68.3107H105.368V53.242H104.368ZM85.2065 68.0682V53.4846H84.2065V68.0682H85.2065ZM89.2702 43.5118H100.3V42.5118H89.2702V43.5118ZM88.2955 50.3461H101.518V49.3461H88.2955V50.3461ZM90.5107 82.2932H99.8124V81.2932H90.5107V82.2932ZM101.518 71.2066H88.2955V72.2066H101.518V71.2066ZM101.018 44.2468V49.8461H102.018V44.2468H101.018ZM101.562 44.7449C106.332 44.3245 114.675 43.4406 120.915 42.532L120.771 41.5424C114.556 42.4475 106.232 43.3294 101.474 43.7488L101.562 44.7449ZM126.821 46.7336C128.408 56.8044 128.795 64.0596 126.716 74.4441L127.696 74.6404C129.806 64.1049 129.408 56.724 127.808 46.5779L126.821 46.7336ZM102.018 80.0641V71.7066H101.018V80.0641H102.018ZM122.513 78.0969L101.483 79.5653L101.553 80.5629L122.582 79.0944L122.513 78.0969ZM87.7955 71.7066V80.0641H88.7955V71.7066H87.7955ZM88.3636 79.5688C87.6386 79.469 86.3166 79.6527 84.6473 80.3843C82.9614 81.1232 80.8855 82.4359 78.6447 84.6487L79.3474 85.3602C81.5091 83.2255 83.4847 81.9857 85.0488 81.3002C86.6296 80.6073 87.756 80.4946 88.2273 80.5595L88.3636 79.5688ZM78.6447 84.6487C75.8851 87.3738 71.1195 92.2322 66.1168 96.3517C63.6157 98.4113 61.0701 100.274 58.7002 101.588C56.3149 102.911 54.1772 103.639 52.4709 103.526L52.4044 104.524C54.4067 104.657 56.7553 103.81 59.1852 102.463C61.6305 101.106 64.2291 99.2016 66.7525 97.1237C71.7989 92.9681 76.6039 88.0694 79.3474 85.3602L78.6447 84.6487ZM52.4709 103.526C50.559 103.398 48.42 103.638 46.2322 103.966C44.0225 104.298 41.7834 104.718 39.5781 104.979C35.1519 105.504 31.1989 105.34 28.6311 102.689L27.9128 103.384C30.8481 106.415 35.2693 106.497 39.6959 105.972C41.9171 105.709 44.2239 105.279 46.3808 104.955C48.5597 104.628 50.6077 104.404 52.4044 104.524L52.4709 103.526ZM28.6311 102.689C25.8577 99.8255 22.996 97.7457 20.9992 96.048C19.9861 95.1867 19.209 94.4362 18.7264 93.7245C18.2527 93.0258 18.0922 92.4096 18.2323 91.7829L17.2563 91.5648C17.0375 92.5437 17.3256 93.4404 17.8987 94.2857C18.4629 95.1178 19.3307 95.942 20.3514 96.8098C22.4221 98.5703 25.1831 100.566 27.9128 103.384L28.6311 102.689ZM18.2323 91.7829C18.7721 89.368 20.0409 88.9627 20.3762 88.9627V87.9627C19.4354 87.9627 17.865 88.8418 17.2563 91.5648L18.2323 91.7829ZM51.4708 92.6561C47.2537 92.7382 37.7031 93.1 33.4435 93.8996L33.628 94.8825C37.7904 94.1011 47.2534 93.7384 51.4903 93.6559L51.4708 92.6561ZM33.4435 93.8996C30.8732 94.3821 28.3414 94.3139 26.1502 93.4619C23.9719 92.6149 22.0934 90.98 20.8299 88.2525L19.9225 88.6728C21.2909 91.6267 23.3602 93.45 25.7878 94.3939C28.2024 95.3328 30.9345 95.388 33.628 94.8825L33.4435 93.8996ZM26.734 80.298L33.6727 78.3219L33.3988 77.3601L26.4601 79.3362L26.734 80.298ZM20.8332 88.2598C20.1053 86.6203 20.3614 85.2448 21.0984 84.0942C21.8534 82.9155 23.1275 81.9573 24.4391 81.2598L23.9697 80.3769C22.5832 81.1141 21.1417 82.1726 20.2564 83.5548C19.3531 84.965 19.0441 86.6943 19.9192 88.6655L20.8332 88.2598ZM24.4391 81.2598C25.2561 80.8255 26.0689 80.5022 26.7438 80.2951L26.4503 79.3391C25.7165 79.5643 24.8445 79.9117 23.9697 80.3769L24.4391 81.2598ZM24.4721 80.3961C23.1346 79.5481 20.7523 76.9386 21.8134 73.2872L20.8531 73.0082C19.6172 77.2613 22.403 80.2683 23.9367 81.2406L24.4721 80.3961ZM21.8134 73.2872C22.4209 71.1964 24.2661 69.6828 26.3971 68.3876L25.8778 67.5331C23.7224 68.843 21.5743 70.5264 20.8531 73.0082L21.8134 73.2872ZM26.3971 68.3876C27.6395 67.6326 28.8874 67.0024 30.0334 66.3492C31.1374 65.72 32.1515 65.067 32.7346 64.3144L31.9442 63.7018C31.4991 64.2763 30.6562 64.8433 29.5383 65.4804C28.4624 66.0936 27.1234 66.776 25.8778 67.5331L26.3971 68.3876ZM26.5156 67.6332C25.9567 66.9873 25.3399 65.7052 25.4286 64.0221C25.5167 62.352 26.303 60.241 28.6239 57.9408L27.9199 57.2306C25.4555 59.6731 24.5334 62.0084 24.43 63.9694C24.3273 65.9175 25.0359 67.4513 25.7594 68.2875L26.5156 67.6332ZM28.6239 57.9408C29.1326 57.4366 29.6118 56.9575 30.0625 56.5032L29.3525 55.799C28.9039 56.2512 28.4268 56.7283 27.9199 57.2306L28.6239 57.9408ZM30.0625 56.5032C33.8498 52.6852 35.6408 50.5983 36.0936 49.9751L35.2846 49.3873C34.8819 49.9416 33.1409 51.9799 29.3525 55.799L30.0625 56.5032ZM30.0196 55.7605C29.6991 55.5043 28.8346 54.0941 31.0598 51.2225L30.2693 50.61C27.9006 53.6668 28.4398 55.7781 29.3954 56.5417L30.0196 55.7605ZM31.0598 51.2225C32.5055 49.3569 33.9092 47.0929 35.1437 45.3026C35.7691 44.3955 36.3515 43.6083 36.8882 43.021C37.4407 42.4163 37.8797 42.0982 38.2067 42.0138L37.9568 41.0455C37.3267 41.2081 36.719 41.7237 36.15 42.3464C35.5651 42.9864 34.9511 43.8203 34.3204 44.7349C33.0426 46.5881 31.6948 48.7704 30.2693 50.61L31.0598 51.2225ZM38.2067 42.0138C38.6167 41.908 39.5698 41.8446 40.9093 41.8212C42.2236 41.7982 43.8464 41.8135 45.5497 41.8443C48.9445 41.9058 52.6721 42.0297 54.8303 42.0297V41.0297C52.6818 41.0297 48.9921 40.9065 45.5678 40.8445C43.8617 40.8136 42.2245 40.798 40.8919 40.8213C39.5845 40.8442 38.5038 40.9043 37.9568 41.0455L38.2067 42.0138ZM54.8303 42.0297C56.9994 42.0297 60.176 41.6551 63.175 41.473C64.6928 41.3808 66.1821 41.3357 67.5233 41.4038C68.8705 41.4722 70.0353 41.6535 70.9198 41.9959L71.2808 41.0634C70.2511 40.6647 68.9635 40.4756 67.5741 40.405C66.1787 40.3342 64.6473 40.3817 63.1144 40.4748C60.0122 40.6632 56.968 41.0297 54.8303 41.0297V42.0297ZM70.9198 41.9959C74.6682 43.4471 76.002 44.4999 79.7138 44.4999V43.4999C76.2477 43.4999 75.1888 42.5764 71.2808 41.0634L70.9198 41.9959ZM88.7955 49.8461V43.9999H87.7955V49.8461H88.7955ZM79.7138 44.4999H88.2955V43.4999H79.7138V44.4999ZM104.368 68.3107C104.368 69.9166 103.085 71.2066 101.518 71.2066V72.2066C103.651 72.2066 105.368 70.4559 105.368 68.3107H104.368ZM120.915 42.532C123.67 42.1308 126.388 43.9871 126.821 46.7336L127.808 46.5779C127.284 43.2479 124.024 41.0686 120.771 41.5424L120.915 42.532ZM126.716 74.4441C126.308 76.4815 124.571 77.9566 122.513 78.0968L122.581 79.0945C125.075 78.9245 127.197 77.1342 127.696 74.6404L126.716 74.4441ZM84.2065 68.0682C84.2065 70.3473 86.0308 72.2066 88.2955 72.2066V71.2066C86.5959 71.2066 85.2065 69.808 85.2065 68.0682H84.2065ZM105.368 53.242C105.368 51.0968 103.651 49.3461 101.518 49.3461V50.3461C103.085 50.3461 104.368 51.6362 104.368 53.242H105.368ZM85.2065 53.4846C85.2065 51.7448 86.5959 50.3461 88.2955 50.3461V49.3461C86.0308 49.3461 84.2065 51.2055 84.2065 53.4846H85.2065ZM90.5107 81.2932C90.1599 81.2932 89.7061 81.1423 89.3413 80.8806C88.9688 80.6132 88.7955 80.3125 88.7955 80.0641H87.7955C87.7955 80.7708 88.2587 81.3345 88.7583 81.693C89.2657 82.0571 89.9194 82.2932 90.5107 82.2932V81.2932ZM100.3 43.5118C100.69 43.5118 101.018 43.8344 101.018 44.2468H102.018C102.018 43.2951 101.255 42.5118 100.3 42.5118V43.5118ZM99.8124 82.2932C101.037 82.2932 102.018 81.2888 102.018 80.0641H101.018C101.018 80.7494 100.472 81.2932 99.8124 81.2932V82.2932ZM89.2702 42.5118C88.4493 42.5118 87.7955 43.1845 87.7955 43.9999H88.7955C88.7955 43.7238 89.0144 43.5118 89.2702 43.5118V42.5118ZM90.1962 34.1895L81.5498 14.0146L80.6306 14.4085L89.277 34.5834L90.1962 34.1895ZM95.9583 31.7061L106.766 7.20803L105.851 6.80439L95.0434 31.3025L95.9583 31.7061ZM89.2894 86.0412L74.8787 114.862L75.7732 115.31L90.1838 86.4884L89.2894 86.0412ZM95.0225 86.4104L100.066 102.983L101.023 102.691L95.9792 86.1192L95.0225 86.4104Z" fill="white"/>
</svg>
