<svg width="130" height="130" viewBox="0 0 130 130" fill="none" xmlns="http://www.w3.org/2000/svg">
<path d="M39.0934 67.0312V56.0209H113.75C114.221 56.0209 114.604 56.4033 114.604 56.8751V121.234C114.604 122.808 113.328 124.083 111.754 124.083H18.2453C16.6714 124.083 15.3955 122.808 15.3955 121.234V69.5625H36.5622H36.7693L36.9157 69.416L38.947 67.3848L39.0934 67.2383V67.0312ZM120.823 32.3937L121.198 32.8184L121.573 32.3937C121.978 31.9344 122.569 31.6459 123.229 31.6459C124.449 31.6459 125.437 32.6346 125.437 33.8542C125.437 35.0739 124.449 36.0626 123.229 36.0626C122.569 36.0626 121.978 35.7741 121.573 35.3148L121.198 34.8901L120.823 35.3148C120.417 35.7741 119.826 36.0626 119.166 36.0626C117.947 36.0626 116.958 35.0739 116.958 33.8542C116.958 32.6346 117.947 31.6459 119.166 31.6459C119.826 31.6459 120.417 31.9344 120.823 32.3937ZM30.8806 29.0834H30.3806V29.5834V39.0279V39.5279H30.8806H33.9716C34.4003 39.5279 34.708 39.8541 34.708 40.2084V40.7987C34.708 41.153 34.4003 41.4792 33.9716 41.4792H8.00692C7.57818 41.4792 7.27051 41.153 7.27051 40.7987V40.2084C7.27051 39.8541 7.57818 39.5279 8.00692 39.5279L11.098 39.5279H11.598V39.0279V29.5834V29.0834H11.098H7.99879C7.2562 29.0834 7.01389 28.1583 7.60299 27.7858L20.5934 19.5725C20.8341 19.4204 21.1444 19.4204 21.3851 19.5725L34.3755 27.7858C34.9646 28.1583 34.7223 29.0834 33.9797 29.0834H30.8806ZM13.689 39.0279V39.5279H14.189H16.6618H17.1618V39.0279V29.5834V29.0834H16.6618H14.189H13.689V29.5834V39.0279ZM19.2528 39.0279V39.5279H19.7528H22.2257H22.7257V39.0279V29.5834V29.0834H22.2257H19.7528H19.2528V29.5834V39.0279ZM25.3167 29.0834H24.8167V29.5834V39.0279V39.5279H25.3167H27.7895H28.2895V39.0279V29.5834V29.0834H27.7895H25.3167ZM58.7288 5.91675H128.145V14.3959H58.7288V5.91675Z" fill="white" stroke="black"/>
<path d="M86.667 87.5208H86.167V88.0208V109.687V110.187H86.667H93.4378C94.6575 110.187 95.6462 111.176 95.6462 112.396V113.75C95.6462 114.97 94.6575 115.958 93.4378 115.958H36.5628C35.3432 115.958 34.3545 114.97 34.3545 113.75V112.396C34.3545 111.176 35.3432 110.187 36.5628 110.187L43.3337 110.187H43.8337V109.687V88.0208V87.5208H43.3337H36.545C34.394 87.5208 33.4988 84.5825 35.3688 83.3443L63.8241 64.502C64.5414 64.027 65.4592 64.027 66.1766 64.502L94.6319 83.3443C96.5018 84.5825 95.6067 87.5208 93.4556 87.5208H86.667ZM49.6045 109.687V110.187H50.1045H55.5212H56.0212V109.687V88.0208V87.5208H55.5212H50.1045H49.6045V88.0208V109.687ZM61.792 109.687V110.187H62.292H67.7087H68.2087V109.687V88.0208V87.5208H67.7087H62.292H61.792V88.0208V109.687ZM74.4795 87.5208H73.9795V88.0208V109.687V110.187H74.4795H79.8962H80.3962V109.687V88.0208V87.5208H79.8962H74.4795Z" fill="white" stroke="black"/>
<path d="M120.381 124.64V53.4893C120.381 51.9936 119.169 50.781 117.673 50.781H38.3191M120.381 124.64H9.47955M120.381 124.64H128.576C128.95 124.64 129.253 124.943 129.253 125.317V126.614C129.253 128.11 128.041 129.323 126.545 129.323H3.31576C1.81999 129.323 0.607422 128.11 0.607422 126.614V125.317C0.607422 124.943 0.910562 124.64 1.28451 124.64H9.47955M9.47955 124.64V69.0622M5.75534 62.5428L35.0599 62.5503M40.6254 5.12006V9.03642M40.6254 11.2743V15.1907M0.677511 27.4993L0.677512 31.9751M10.8338 5.41646H29.115M2.49828 66.8158L2.51481 2.91434C2.51513 1.67837 3.51733 0.676682 4.7533 0.677002L36.0941 0.685107C37.3301 0.685426 38.3318 1.68764 38.3315 2.9236L38.315 66.8251C38.3146 68.061 37.3124 69.0627 36.0765 69.0624L4.73562 69.0543C3.49965 69.054 2.49796 68.0518 2.49828 66.8158ZM60.9379 41.9789H125.938C127.434 41.9789 128.646 40.7664 128.646 39.2706V4.06225C128.646 2.56648 127.434 1.35392 125.938 1.35392H60.9379C59.4421 1.35392 58.2296 2.56648 58.2296 4.06225V39.2706C58.2296 40.7664 59.4421 41.9789 60.9379 41.9789ZM67.7089 21.6664C67.7089 20.1706 68.9215 18.9581 70.4173 18.9581H85.3131C86.8089 18.9581 88.0214 20.1706 88.0214 21.6664C88.0214 23.1622 86.8089 24.3748 85.3131 24.3748H70.4173C68.9215 24.3748 67.7089 23.1622 67.7089 21.6664ZM92.0839 21.6664C92.0839 20.1706 93.2965 18.9581 94.7922 18.9581H123.23C124.726 18.9581 125.938 20.1706 125.938 21.6664C125.938 23.1622 124.726 24.3748 123.23 24.3748H94.7922C93.2965 24.3748 92.0839 23.1622 92.0839 21.6664Z" stroke="black" stroke-linecap="round" stroke-linejoin="round"/>
</svg>
