<svg width="130" height="130" viewBox="0 0 130 130" fill="none" xmlns="http://www.w3.org/2000/svg">
<path d="M16.9268 29.7917H60.2601M16.9268 46.0417H60.2601M16.9268 40.6251H60.2601M16.9268 56.8751H60.2601M16.9268 35.2084H60.2601M16.9268 51.4584H60.2601" stroke="white" stroke-width="2" stroke-linecap="round" stroke-linejoin="round"/>
<path d="M97.5 16.25H67.7083V58.2292H79.2187V41.9791L81.25 39.9478H100.208V18.9583C100.208 17.4626 98.9958 16.25 97.5 16.25Z" fill="#364684"/>
<path d="M88.0208 92.0833C88.0208 91.3354 88.6271 90.7292 89.375 90.7292H116.458C117.206 90.7292 117.812 91.3354 117.812 92.0833C117.812 92.8312 117.206 93.4375 116.458 93.4375H89.375C88.6271 93.4375 88.0208 92.8312 88.0208 92.0833Z" fill="#364684"/>
<path d="M88.0208 88.0208C88.0208 87.2729 88.6271 86.6667 89.375 86.6667H116.458C117.206 86.6667 117.812 87.2729 117.812 88.0208C117.812 88.7687 117.206 89.375 116.458 89.375H89.375C88.6271 89.375 88.0208 88.7687 88.0208 88.0208Z" fill="#364684"/>
<path d="M88.0208 83.9583C88.0208 83.2104 88.6271 82.6042 89.375 82.6042H116.458C117.206 82.6042 117.812 83.2104 117.812 83.9583C117.812 84.7062 117.206 85.3125 116.458 85.3125H89.375C88.6271 85.3125 88.0208 84.7062 88.0208 83.9583Z" fill="#364684"/>
<path d="M88.0208 79.8958C88.0208 79.1479 88.6271 78.5417 89.375 78.5417H116.458C117.206 78.5417 117.812 79.1479 117.812 79.8958C117.812 80.6437 117.206 81.25 116.458 81.25H89.375C88.6271 81.25 88.0208 80.6437 88.0208 79.8958Z" fill="#364684"/>
<path d="M88.0208 75.8333C88.0208 75.0854 88.6271 74.4792 89.375 74.4792H116.458C117.206 74.4792 117.812 75.0854 117.812 75.8333C117.812 76.5812 117.206 77.1875 116.458 77.1875H89.375C88.6271 77.1875 88.0208 76.5812 88.0208 75.8333Z" fill="#364684"/>
<path d="M88.0208 71.7708C88.0208 71.0229 88.6271 70.4167 89.375 70.4167H116.458C117.206 70.4167 117.812 71.0229 117.812 71.7708C117.812 72.5187 117.206 73.125 116.458 73.125H89.375C88.6271 73.125 88.0208 72.5187 88.0208 71.7708Z" fill="#364684"/>
<path d="M16.25 71.7708C16.25 68.0314 19.2814 65 23.0208 65H51.4583C55.1978 65 58.2292 68.0314 58.2292 71.7708V115.104C58.2292 118.844 55.1978 121.875 51.4583 121.875H23.0208C19.2814 121.875 16.25 118.844 16.25 115.104V71.7708Z" fill="#364684"/>
<path d="M97.5 16.25H67.7083V58.2292H79.2187V41.9791L81.25 39.9478H100.208V18.9583C100.208 17.4626 98.9958 16.25 97.5 16.25Z" stroke="white"/>
<path d="M88.0208 92.0833C88.0208 91.3354 88.6271 90.7292 89.375 90.7292H116.458C117.206 90.7292 117.812 91.3354 117.812 92.0833C117.812 92.8312 117.206 93.4375 116.458 93.4375H89.375C88.6271 93.4375 88.0208 92.8312 88.0208 92.0833Z" stroke="white"/>
<path d="M88.0208 88.0208C88.0208 87.2729 88.6271 86.6667 89.375 86.6667H116.458C117.206 86.6667 117.812 87.2729 117.812 88.0208C117.812 88.7687 117.206 89.375 116.458 89.375H89.375C88.6271 89.375 88.0208 88.7687 88.0208 88.0208Z" stroke="white"/>
<path d="M88.0208 83.9583C88.0208 83.2104 88.6271 82.6042 89.375 82.6042H116.458C117.206 82.6042 117.812 83.2104 117.812 83.9583C117.812 84.7062 117.206 85.3125 116.458 85.3125H89.375C88.6271 85.3125 88.0208 84.7062 88.0208 83.9583Z" stroke="white"/>
<path d="M88.0208 79.8958C88.0208 79.1479 88.6271 78.5417 89.375 78.5417H116.458C117.206 78.5417 117.812 79.1479 117.812 79.8958C117.812 80.6437 117.206 81.25 116.458 81.25H89.375C88.6271 81.25 88.0208 80.6437 88.0208 79.8958Z" stroke="white"/>
<path d="M88.0208 75.8333C88.0208 75.0854 88.6271 74.4792 89.375 74.4792H116.458C117.206 74.4792 117.812 75.0854 117.812 75.8333C117.812 76.5812 117.206 77.1875 116.458 77.1875H89.375C88.6271 77.1875 88.0208 76.5812 88.0208 75.8333Z" stroke="white"/>
<path d="M88.0208 71.7708C88.0208 71.0229 88.6271 70.4167 89.375 70.4167H116.458C117.206 70.4167 117.812 71.0229 117.812 71.7708C117.812 72.5187 117.206 73.125 116.458 73.125H89.375C88.6271 73.125 88.0208 72.5187 88.0208 71.7708Z" stroke="white"/>
<path d="M16.25 71.7708C16.25 68.0314 19.2814 65 23.0208 65H51.4583C55.1978 65 58.2292 68.0314 58.2292 71.7708V115.104C58.2292 118.844 55.1978 121.875 51.4583 121.875H23.0208C19.2814 121.875 16.25 118.844 16.25 115.104V71.7708Z" stroke="white"/>
<path d="M128.823 54.1666C128.823 54.4427 129.046 54.6666 129.323 54.6666C129.599 54.6666 129.823 54.4427 129.823 54.1666H128.823ZM129.823 45.9821C129.823 45.7059 129.599 45.4821 129.323 45.4821C129.046 45.4821 128.823 45.7059 128.823 45.9821H129.823ZM128.823 66.6071C128.823 66.8832 129.046 67.1071 129.323 67.1071C129.599 67.1071 129.823 66.8832 129.823 66.6071H128.823ZM129.823 58.4225C129.823 58.1464 129.599 57.9225 129.323 57.9225C129.046 57.9225 128.823 58.1464 128.823 58.4225H129.823ZM76.0101 82.8943C76.0101 83.1704 76.2339 83.3943 76.5101 83.3943C76.7862 83.3943 77.0101 83.1704 77.0101 82.8943H76.0101ZM77.0101 74.7097C77.0101 74.4336 76.7862 74.2097 76.5101 74.2097C76.2339 74.2097 76.0101 74.4336 76.0101 74.7097H77.0101ZM83.2809 66.1805L82.9214 65.833C82.8313 65.9262 82.7809 66.0508 82.7809 66.1805H83.2809ZM89.6581 59.5833V59.0833C89.5226 59.0833 89.3928 59.1383 89.2986 59.2357L89.6581 59.5833ZM85.9893 106.479C85.7131 106.479 85.4893 106.703 85.4893 106.979C85.4893 107.255 85.7131 107.479 85.9893 107.479V106.479ZM119.844 107.479C120.12 107.479 120.344 107.255 120.344 106.979C120.344 106.703 120.12 106.479 119.844 106.479V107.479ZM88.9298 103.365C88.8037 103.611 88.9007 103.912 89.1464 104.039C89.3921 104.165 89.6934 104.068 89.8195 103.822L88.9298 103.365ZM90.3436 101.705L89.8988 101.477V101.477L90.3436 101.705ZM93.5625 101.803L94.0601 101.754V101.754L93.5625 101.803ZM93.7864 104.094L93.2888 104.143L93.7864 104.094ZM94.3183 104.135L94.8026 104.259L94.3183 104.135ZM95.1485 100.9L95.6328 101.024L95.1485 100.9ZM95.6518 100.843L96.0966 100.615H96.0966L95.6518 100.843ZM96.4604 102.419L96.0155 102.647H96.0155L96.4604 102.419ZM96.9477 102.408L96.4928 102.2L96.9477 102.408ZM97.4101 101.394L97.8651 101.602L97.4101 101.394ZM97.8975 101.383L98.3424 101.155L97.8975 101.383ZM98.8646 103.267L98.4198 103.496L98.8646 103.267ZM99.2946 103.338L98.9457 102.98L99.2946 103.338ZM100.221 102.435L99.8724 102.077H99.8724L100.221 102.435ZM100.61 102.446L100.98 102.109L100.61 102.446ZM102.075 104.051L102.444 103.714L102.075 104.051ZM102.475 104.051L102.106 103.714L102.475 104.051ZM103.897 102.492L103.528 102.155H103.528L103.897 102.492ZM104.321 102.522L104.734 102.239H104.734L104.321 102.522ZM105.325 103.989L104.912 104.271V104.271L105.325 103.989ZM105.748 104.018L105.379 103.681L105.379 103.681L105.748 104.018ZM107.164 102.466L106.795 102.129L107.164 102.466ZM107.57 102.472L107.19 102.797V102.797L107.57 102.472ZM109.211 104.391L109.59 104.066L109.211 104.391ZM110.187 102.24C110.187 101.963 109.963 101.74 109.687 101.74C109.411 101.74 109.187 101.963 109.187 102.24H110.187ZM112.396 102.417C112.119 102.417 111.896 102.64 111.896 102.917C111.896 103.193 112.119 103.417 112.396 103.417V102.417ZM114.427 103.417C114.703 103.417 114.927 103.193 114.927 102.917C114.927 102.64 114.703 102.417 114.427 102.417V103.417ZM3.38509 79.8958L3.38573 79.3958H3.38509V79.8958ZM58.4059 3.38533C58.4059 3.66148 58.6298 3.88533 58.9059 3.88533C59.1821 3.88533 59.4059 3.66148 59.4059 3.38533H58.4059ZM0.676758 10.8333L0.323204 10.4797C0.229436 10.5735 0.176758 10.7006 0.176758 10.8333H0.676758ZM10.833 0.677002V0.177002C10.7004 0.177002 10.5732 0.22968 10.4795 0.323449L10.833 0.677002ZM9.47884 14.2187L9.12529 13.8651C9.03152 13.9589 8.97884 14.0861 8.97884 14.2187H9.47884ZM19.6351 4.06242V3.56242C19.5025 3.56242 19.3753 3.6151 19.2815 3.70887L19.6351 4.06242ZM22.075 98.4404C21.842 98.5887 21.7733 98.8977 21.9216 99.1307C22.0698 99.3637 22.3789 99.4324 22.6119 99.2841L22.075 98.4404ZM32.4997 88.0289L32.9566 88.232L32.4997 88.0289ZM29.7913 102.925L29.5341 102.496L29.7913 102.925ZM23.474 105.863C23.227 105.986 23.1269 106.287 23.2504 106.534C23.3739 106.781 23.6742 106.881 23.9212 106.757L23.474 105.863ZM31.6478 83.2891L32.0648 83.5654L32.0718 83.5541L31.6478 83.2891ZM41.6253 81.6117C41.8205 81.807 42.1371 81.807 42.3324 81.6118C42.5276 81.4165 42.5277 81.0999 42.3324 80.9047L41.6253 81.6117ZM42.6559 92.7683L42.2087 92.5447C42.2064 92.5494 42.2041 92.5541 42.2019 92.5588L42.6559 92.7683ZM25.5431 108.554C25.2868 108.657 25.162 108.948 25.2646 109.204C25.3672 109.461 25.6581 109.585 25.9145 109.483L25.5431 108.554ZM21.3725 94.3951C21.149 94.5574 21.0995 94.87 21.2618 95.0935C21.4241 95.3169 21.7368 95.3664 21.9602 95.2041L21.3725 94.3951ZM28.6509 88.3413C28.8236 88.1258 28.789 87.8111 28.5735 87.6384C28.3581 87.4657 28.0434 87.5004 27.8707 87.7158L28.6509 88.3413ZM29.3847 85.7063C29.224 85.9309 29.2758 86.2432 29.5004 86.4039C29.7249 86.5646 30.0372 86.5128 30.1979 86.2883L29.3847 85.7063ZM35.8496 88.6902C35.711 88.9291 35.7923 89.2351 36.0312 89.3736C36.2701 89.5121 36.576 89.4308 36.7146 89.1919L35.8496 88.6902ZM38.3573 86.2331C38.4875 85.9896 38.3955 85.6866 38.152 85.5565C37.9084 85.4263 37.6055 85.5183 37.4754 85.7618L38.3573 86.2331ZM22.7826 101.808C22.5397 101.939 22.4493 102.243 22.5808 102.485C22.7122 102.728 23.0156 102.819 23.2585 102.687L22.7826 101.808ZM35.6285 91.0014C35.7745 90.767 35.7029 90.4587 35.4685 90.3127C35.2341 90.1667 34.9257 90.2383 34.7797 90.4727L35.6285 91.0014ZM21.3409 90.3574C21.1313 90.5372 21.107 90.8528 21.2867 91.0625C21.4664 91.2721 21.7821 91.2964 21.9917 91.1167L21.3409 90.3574ZM31.1455 79.2268L31.4992 79.5801L31.1455 79.2268ZM38.5934 104.279L38.2399 103.925L38.5934 104.279ZM50.958 87.3515C50.958 87.6276 51.1819 87.8515 51.458 87.8515C51.7341 87.8515 51.958 87.6276 51.958 87.3515H50.958ZM44.0101 103.602L43.6032 103.311L44.0101 103.602ZM30.2112 114.006C29.9744 114.148 29.8976 114.455 30.0397 114.692C30.1817 114.929 30.4889 115.006 30.7257 114.864L30.2112 114.006ZM21.9899 85.6439C21.7946 85.8392 21.7946 86.1557 21.9899 86.351C22.1851 86.5463 22.5017 86.5463 22.697 86.3511L21.9899 85.6439ZM27.0788 79.8525C27.2461 79.6329 27.2038 79.3191 26.9841 79.1518C26.7645 78.9844 26.4507 79.0268 26.2834 79.2464L27.0788 79.8525ZM27.8966 77.3324C27.7074 77.5335 27.7171 77.8499 27.9182 78.0391C28.1194 78.2283 28.4358 78.2187 28.625 78.0175L27.8966 77.3324ZM30.7685 76.0823C30.9894 75.9166 31.0341 75.6032 30.8684 75.3823C30.7027 75.1614 30.3893 75.1167 30.1684 75.2824L30.7685 76.0823ZM32.9791 73.6391C32.7255 73.7483 32.6083 74.0424 32.7175 74.296C32.8266 74.5497 33.1208 74.6668 33.3744 74.5577L32.9791 73.6391ZM51.6404 90.1652C51.6986 89.8953 51.527 89.6293 51.257 89.5711C50.9871 89.5129 50.7211 89.6845 50.6629 89.9544L51.6404 90.1652ZM49.6066 93.2542C49.5011 93.5094 49.6225 93.8018 49.8777 93.9073C50.1329 94.0128 50.4253 93.8915 50.5308 93.6363L49.6066 93.2542ZM49.2235 96.3883C49.3532 96.1445 49.2606 95.8418 49.0168 95.7121C48.773 95.5825 48.4702 95.675 48.3406 95.9189L49.2235 96.3883ZM36.7916 105.251C36.581 105.43 36.555 105.746 36.7336 105.956C36.9122 106.167 37.2278 106.193 37.4384 106.014L36.7916 105.251ZM35.501 107.541C35.7232 107.377 35.7704 107.064 35.6065 106.842C35.4425 106.62 35.1295 106.572 34.9073 106.736L35.501 107.541ZM32.2296 108.574C31.9972 108.723 31.9297 109.033 32.0789 109.265C32.228 109.497 32.5373 109.565 32.7697 109.416L32.2296 108.574ZM30.0386 111.068C30.2786 110.931 30.3625 110.626 30.2259 110.386C30.0894 110.146 29.7841 110.062 29.5441 110.199L30.0386 111.068ZM27.5365 111.279C27.2895 111.403 27.1894 111.703 27.3129 111.95C27.4364 112.197 27.7367 112.297 27.9837 112.174L27.5365 111.279ZM45.0263 85.2522C44.9886 84.9786 44.7364 84.7873 44.4628 84.8249C44.1892 84.8625 43.998 85.1148 44.0356 85.3884L45.0263 85.2522ZM33.5708 115.377C33.3432 115.533 33.2853 115.844 33.4417 116.072C33.598 116.3 33.9092 116.358 34.1369 116.201L33.5708 115.377ZM44.1491 114.758C44.3274 114.969 44.6429 114.995 44.8538 114.817C45.0646 114.638 45.091 114.323 44.9127 114.112L44.1491 114.758ZM37.6434 116.047C37.412 116.198 37.3467 116.508 37.4974 116.739C37.6481 116.97 37.9579 117.036 38.1893 116.885L37.6434 116.047ZM41.6889 116.196C41.9138 116.356 42.226 116.304 42.3862 116.079C42.5463 115.854 42.4938 115.542 42.2688 115.382L41.6889 116.196ZM46.3983 113.465C46.6105 113.642 46.9258 113.613 47.1025 113.401C47.2793 113.189 47.2507 112.873 47.0385 112.697L46.3983 113.465ZM53.9825 92.1733C54.0279 91.9009 53.8438 91.6433 53.5715 91.5979C53.2991 91.5525 53.0415 91.7365 52.9961 92.0089L53.9825 92.1733ZM49.0625 111.392C49.2517 111.593 49.5681 111.603 49.7693 111.414C49.9704 111.225 49.9802 110.908 49.791 110.707L49.0625 111.392ZM53.9117 101.161C54.0594 100.927 53.99 100.618 53.7567 100.471C53.5233 100.323 53.2144 100.392 53.0668 100.626L53.9117 101.161ZM30.73 73.0751C30.9653 72.9307 31.039 72.6228 30.8945 72.3875C30.7501 72.1521 30.4422 72.0784 30.2069 72.2229L30.73 73.0751ZM23.2649 79.6531C23.1265 79.8921 23.2081 80.1979 23.4471 80.3363C23.6861 80.4747 23.9919 80.3931 24.1303 80.1541L23.2649 79.6531ZM51.0651 77.5045C51.2359 77.7215 51.5502 77.7589 51.7672 77.5882C51.9842 77.4174 52.0217 77.103 51.8509 76.886L51.0651 77.5045ZM50.4254 75.2652C50.2318 75.0682 49.9153 75.0654 49.7183 75.259C49.5213 75.4525 49.5185 75.7691 49.712 75.966L50.4254 75.2652ZM48.2799 74.6559C48.4934 74.8311 48.8085 74.8 48.9836 74.5865C49.1588 74.373 49.1277 74.058 48.9142 73.8828L48.2799 74.6559ZM32.3035 71.1376C32.0495 71.246 31.9314 71.5397 32.0398 71.7937C32.1481 72.0477 32.4419 72.1658 32.6959 72.0574L32.3035 71.1376ZM78.7184 42.8854V126.385H79.7184V42.8854H78.7184ZM82.156 129.823H123.677V128.823H82.156V129.823ZM127.114 126.385V42.8854H126.114V126.385H127.114ZM85.9893 39.4478H82.156V40.4478H85.9893V39.4478ZM85.4893 39.9478V43.7216H86.4893V39.9478H85.4893ZM89.3747 47.1591H116.906V46.1591H89.3747V47.1591ZM123.677 39.4478H119.843V40.4478H123.677V39.4478ZM119.843 39.4478H85.9893V40.4478H119.843V39.4478ZM120.343 43.7216V39.9478H119.343V43.7216H120.343ZM129.823 54.1666V45.9821H128.823V54.1666H129.823ZM129.823 66.6071V58.4225H128.823V66.6071H129.823ZM77.0101 82.8943V74.7097H76.0101V82.8943H77.0101ZM116.906 47.1591C118.804 47.1591 120.343 45.6201 120.343 43.7216H119.343C119.343 45.0678 118.252 46.1591 116.906 46.1591V47.1591ZM127.114 42.8854C127.114 40.9869 125.575 39.4478 123.677 39.4478V40.4478C125.023 40.4478 126.114 41.5392 126.114 42.8854H127.114ZM123.677 129.823C125.575 129.823 127.114 128.284 127.114 126.385H126.114C126.114 127.731 125.023 128.823 123.677 128.823V129.823ZM78.7184 126.385C78.7184 128.284 80.2575 129.823 82.156 129.823V128.823C80.8097 128.823 79.7184 127.731 79.7184 126.385H78.7184ZM85.4893 43.7216C85.4893 44.7213 86.0308 45.5859 86.7551 46.1842C87.4794 46.7825 88.4362 47.1591 89.3747 47.1591V46.1591C88.6908 46.1591 87.9549 45.8782 87.392 45.4133C86.8292 44.9484 86.4893 44.3443 86.4893 43.7216H85.4893ZM79.7184 42.8854C79.7184 41.5392 80.8097 40.4478 82.156 40.4478V39.4478C80.2575 39.4478 78.7184 40.9869 78.7184 42.8854H79.7184ZM85.9893 115.604H119.844V114.604H85.9893V115.604ZM123.052 112.396V62.2916H122.052V112.396H123.052ZM86.9498 65.6805H83.2809V66.6805H86.9498V65.6805ZM82.7809 66.1805V112.396H83.7809V66.1805H82.7809ZM119.844 59.0833H89.6581V60.0833H119.844V59.0833ZM89.1581 59.5833V63.4721H90.1581V59.5833H89.1581ZM83.6404 66.528L90.0176 59.9308L89.2986 59.2357L82.9214 65.833L83.6404 66.528ZM119.844 115.604C121.615 115.604 123.052 114.168 123.052 112.396H122.052C122.052 113.615 121.063 114.604 119.844 114.604V115.604ZM85.9893 114.604C84.7696 114.604 83.7809 113.615 83.7809 112.396H82.7809C82.7809 114.168 84.2173 115.604 85.9893 115.604V114.604ZM86.9498 66.6805C88.7217 66.6805 90.1581 65.2441 90.1581 63.4721H89.1581C89.1581 64.6918 88.1694 65.6805 86.9498 65.6805V66.6805ZM123.052 62.2916C123.052 60.5197 121.615 59.0833 119.844 59.0833V60.0833C121.063 60.0833 122.052 61.072 122.052 62.2916H123.052ZM85.9893 107.479H119.844V106.479H85.9893V107.479ZM89.8195 103.822L90.7885 101.934L89.8988 101.477L88.9298 103.365L89.8195 103.822ZM93.0648 101.851L93.2888 104.143L94.2841 104.045L94.0601 101.754L93.0648 101.851ZM94.8026 104.259L95.6328 101.024L94.6642 100.775L93.834 104.011L94.8026 104.259ZM95.2069 101.072L96.0155 102.647L96.9052 102.191L96.0966 100.615L95.2069 101.072ZM97.4026 102.615L97.8651 101.602L96.9552 101.187L96.4928 102.2L97.4026 102.615ZM97.4527 101.611L98.4198 103.496L99.3095 103.039L98.3424 101.155L97.4527 101.611ZM99.6435 103.696L100.57 102.793L99.8724 102.077L98.9457 102.98L99.6435 103.696ZM100.241 102.783L101.705 104.388L102.444 103.714L100.98 102.109L100.241 102.783ZM102.844 104.388L104.267 102.829L103.528 102.155L102.106 103.714L102.844 104.388ZM103.908 102.804L104.912 104.271L105.737 103.706L104.734 102.239L103.908 102.804ZM106.118 104.355L107.534 102.803L106.795 102.129L105.379 103.681L106.118 104.355ZM107.19 102.797L108.831 104.715L109.59 104.066L107.95 102.148L107.19 102.797ZM110.187 104.214V102.24H109.187V104.214H110.187ZM112.396 103.417H114.427V102.417H112.396V103.417ZM108.831 104.715C109.296 105.26 110.187 104.93 110.187 104.214H109.187C109.187 104.002 109.452 103.904 109.59 104.066L108.831 104.715ZM107.534 102.803C107.441 102.905 107.28 102.902 107.19 102.797L107.95 102.148C107.649 101.795 107.107 101.787 106.795 102.129L107.534 102.803ZM104.912 104.271C105.193 104.681 105.783 104.722 106.118 104.355L105.379 103.681C105.478 103.572 105.654 103.584 105.737 103.706L104.912 104.271ZM104.267 102.829C104.167 102.938 103.992 102.926 103.908 102.804L104.734 102.239C104.453 101.829 103.863 101.788 103.528 102.155L104.267 102.829ZM101.705 104.388C102.011 104.724 102.539 104.724 102.844 104.388L102.106 103.714C102.196 103.615 102.353 103.615 102.444 103.714L101.705 104.388ZM100.57 102.793C100.478 102.883 100.328 102.879 100.241 102.783L100.98 102.109C100.686 101.787 100.184 101.773 99.8724 102.077L100.57 102.793ZM98.4198 103.496C98.6565 103.957 99.2721 104.058 99.6435 103.696L98.9457 102.98C99.0561 102.872 99.2391 102.902 99.3095 103.039L98.4198 103.496ZM97.8651 101.602C97.7856 101.776 97.5401 101.782 97.4527 101.611L98.3424 101.155C98.0483 100.581 97.2226 100.6 96.9552 101.187L97.8651 101.602ZM96.0155 102.647C96.3096 103.22 97.1353 103.201 97.4026 102.615L96.4928 102.2C96.5723 102.026 96.8178 102.02 96.9052 102.191L96.0155 102.647ZM95.6328 101.024C95.5804 101.228 95.3032 101.259 95.2069 101.072L96.0966 100.615C95.7728 99.984 94.8405 100.088 94.6642 100.775L95.6328 101.024ZM93.2888 104.143C93.3727 105.001 94.5883 105.095 94.8026 104.259L93.834 104.011C93.8458 103.965 93.8791 103.912 93.9335 103.877C93.9824 103.845 94.0328 103.836 94.0736 103.839C94.1144 103.842 94.1629 103.859 94.2063 103.898C94.2546 103.941 94.2795 103.998 94.2841 104.045L93.2888 104.143ZM90.7885 101.934C90.745 102.018 90.6876 102.066 90.6594 102.087C90.6291 102.109 90.6052 102.12 90.5981 102.123C90.5846 102.129 90.5883 102.125 90.6215 102.118C90.6847 102.105 90.7888 102.091 90.9327 102.08C91.216 102.058 91.594 102.053 91.9763 102.063C92.3592 102.073 92.7291 102.098 92.9974 102.136C93.1351 102.155 93.2253 102.174 93.2722 102.189C93.2985 102.197 93.2851 102.196 93.2552 102.177C93.2465 102.171 93.0866 102.074 93.0649 101.851L94.0601 101.754C94.035 101.498 93.8481 101.369 93.7915 101.333C93.7137 101.283 93.6315 101.253 93.5712 101.234C93.4447 101.195 93.2899 101.166 93.1342 101.145C92.8158 101.101 92.4058 101.074 92.0027 101.063C91.5989 101.053 91.1849 101.058 90.8571 101.083C90.6956 101.095 90.5395 101.113 90.4111 101.141C90.3485 101.154 90.2736 101.174 90.2016 101.205C90.1562 101.225 89.9916 101.296 89.8988 101.477L90.7885 101.934ZM8.12467 10.3333H0.676758V11.3333H8.12467V10.3333ZM0.176758 10.8333V77.1874H1.17676V10.8333H0.176758ZM56.1976 0.177002H10.833V1.177H56.1976V0.177002ZM10.333 0.677002V8.12492H11.333V0.677002H10.333ZM1.03031 11.1868L11.1866 1.03056L10.4795 0.323449L0.323204 10.4797L1.03031 11.1868ZM3.38509 79.3958C2.16546 79.3958 1.17676 78.407 1.17676 77.1874H0.176758C0.176758 78.9593 1.61318 80.3958 3.38509 80.3958V79.3958ZM8.12467 11.3333C9.89659 11.3333 11.333 9.89683 11.333 8.12492H10.333C10.333 9.34455 9.3443 10.3333 8.12467 10.3333V11.3333ZM59.4059 3.38533C59.4059 1.61342 57.9695 0.177002 56.1976 0.177002V1.177C57.4172 1.177 58.4059 2.16571 58.4059 3.38533H59.4059ZM68.208 80.5728V6.77075H67.208V80.5728H68.208ZM16.9268 13.7187H9.47884V14.7187H16.9268V13.7187ZM64.9997 3.56242H19.6351V4.56242H64.9997V3.56242ZM19.1351 4.06242V11.5103H20.1351V4.06242H19.1351ZM9.83239 14.5722L19.9886 4.41597L19.2815 3.70887L9.12529 13.8651L9.83239 14.5722ZM64.9997 83.7812C66.7716 83.7812 68.208 82.3447 68.208 80.5728H67.208C67.208 81.7925 66.2193 82.7812 64.9997 82.7812V83.7812ZM12.1872 82.7812C10.9675 82.7812 9.97884 81.7925 9.97884 80.5728H8.97884C8.97884 82.3447 10.4153 83.7812 12.1872 83.7812V82.7812ZM16.9268 14.7187C18.6987 14.7187 20.1351 13.2822 20.1351 11.5103H19.1351C19.1351 12.73 18.1464 13.7187 16.9268 13.7187V14.7187ZM68.208 6.77075C68.208 4.99884 66.7716 3.56242 64.9997 3.56242V4.56242C66.2193 4.56242 67.208 5.55112 67.208 6.77075H68.208ZM22.6119 99.2841C23.8812 98.4763 25.9055 96.9657 27.8884 95.04C29.8674 93.1179 31.8363 90.7526 32.9566 88.232L32.0428 87.8259C30.9964 90.1802 29.1284 92.4417 27.1917 94.3226C25.2588 96.1998 23.2883 97.6683 22.075 98.4404L22.6119 99.2841ZM32.9566 88.232C34.2776 85.2597 35.8851 83.8728 37.2281 83.4251C38.5616 82.9806 39.6701 83.436 40.2086 84.2438L41.0407 83.6891C40.225 82.4656 38.6252 81.9053 36.9119 82.4765C35.208 83.0444 33.4301 84.7044 32.0428 87.8259L32.9566 88.232ZM40.2086 84.2438C41.3891 86.0144 40.8614 87.7913 39.5004 90.5135L40.3948 90.9607C41.7421 88.2661 42.5686 85.9809 41.0407 83.6891L40.2086 84.2438ZM39.5004 90.5135C38.8459 91.8225 37.1776 94.3303 35.2394 96.774C33.2919 99.2297 31.1405 101.532 29.5341 102.496L30.0486 103.353C31.8276 102.286 34.0773 99.8486 36.0229 97.3954C37.978 94.9303 39.6951 92.36 40.3948 90.9607L39.5004 90.5135ZM29.5341 102.496C26.8374 104.114 24.3661 105.417 23.474 105.863L23.9212 106.757C24.8347 106.3 27.3286 104.985 30.0486 103.353L29.5341 102.496ZM32.0718 83.5541C33.6684 80.9997 35.7479 80.2344 37.5751 80.2345C38.501 80.2345 39.3716 80.4318 40.0894 80.7088C40.8149 80.9889 41.351 81.3374 41.6253 81.6117L42.3324 80.9047C41.9296 80.5018 41.259 80.0884 40.4495 79.7759C39.6321 79.4604 38.6395 79.2345 37.5751 79.2345C35.4217 79.2344 33.0127 80.1619 31.2238 83.0241L32.0718 83.5541ZM42.2019 92.5588C39.0047 99.4863 32.1935 105.894 25.5431 108.554L25.9145 109.483C32.8059 106.726 39.8071 100.134 43.1099 92.9779L42.2019 92.5588ZM21.9602 95.2041C24.8992 93.0689 26.4407 91.0984 28.6509 88.3413L27.8707 87.7158C25.6557 90.479 24.1893 92.3486 21.3725 94.3951L21.9602 95.2041ZM30.1979 86.2883C30.7688 85.4906 31.3846 84.5916 32.0647 83.5653L31.231 83.0129C30.5558 84.032 29.9469 84.9207 29.3847 85.7063L30.1979 86.2883ZM36.7146 89.1919C37.2458 88.2761 37.7911 87.2927 38.3573 86.2331L37.4754 85.7618C36.9137 86.813 36.374 87.786 35.8496 88.6902L36.7146 89.1919ZM23.2585 102.687C28.6011 99.7963 31.8577 97.0551 35.6285 91.0014L34.7797 90.4727C31.1074 96.3683 27.9841 98.9931 22.7826 101.808L23.2585 102.687ZM21.9917 91.1167C24.4106 89.0434 25.7948 87.1396 27.0743 85.2637C28.3519 83.3907 29.5096 81.5717 31.4992 79.5801L30.7918 78.8734C28.7228 80.9444 27.5107 82.8493 26.2482 84.7002C24.9878 86.5481 23.6617 88.3683 21.3409 90.3574L21.9917 91.1167ZM31.4992 79.5801C33.4017 77.6759 36.6237 76.6925 39.7117 77.0987C42.7759 77.5018 45.6457 79.2631 46.9256 82.783L47.8654 82.4412C46.437 78.5132 43.2111 76.5505 39.8421 76.1073C36.4968 75.6672 32.948 76.7151 30.7918 78.8734L31.4992 79.5801ZM46.9256 82.783C48.2066 86.3056 47.1018 90.5443 45.0882 94.4875C43.0848 98.4108 40.241 101.924 38.2399 103.925L38.947 104.632C41.0084 102.571 43.9198 98.9745 45.9788 94.9423C48.0278 90.9298 49.2928 86.3665 47.8654 82.4412L46.9256 82.783ZM37.9163 73.6328C43.1743 73.6328 46.4058 75.7573 48.3412 78.4992C50.2954 81.2676 50.958 84.7113 50.958 87.3515H51.958C51.958 84.5749 51.2664 80.9091 49.1582 77.9225C47.0311 74.9091 43.4917 72.6328 37.9163 72.6328V73.6328ZM43.6032 103.311C41.9646 105.605 38.644 108.271 35.6791 110.389C34.2064 111.441 32.8382 112.346 31.8381 112.988C31.3382 113.309 30.9306 113.564 30.6484 113.739C30.5073 113.826 30.3976 113.893 30.3233 113.938C30.2862 113.961 30.2579 113.978 30.2391 113.989C30.2296 113.995 30.2226 113.999 30.2179 114.002C30.2156 114.003 30.2138 114.005 30.2127 114.005C30.2121 114.006 30.2117 114.006 30.2115 114.006C30.2114 114.006 30.2113 114.006 30.2112 114.006C30.2112 114.006 30.2112 114.006 30.4684 114.435C30.7257 114.864 30.7257 114.864 30.7259 114.863C30.726 114.863 30.7261 114.863 30.7263 114.863C30.7267 114.863 30.7272 114.863 30.7278 114.862C30.7292 114.861 30.7311 114.86 30.7337 114.859C30.7388 114.856 30.7464 114.851 30.7563 114.845C30.776 114.833 30.8052 114.816 30.8433 114.792C30.9195 114.746 31.0312 114.678 31.1745 114.589C31.4609 114.412 31.8732 114.154 32.3784 113.829C33.3884 113.181 34.7708 112.266 36.2603 111.202C39.2199 109.088 42.6702 106.338 44.417 103.892L43.6032 103.311ZM22.697 86.3511C22.9674 86.0806 23.2474 85.6967 23.5374 85.2583C23.8306 84.8151 24.1535 84.2861 24.5051 83.7126C25.2126 82.5588 26.0525 81.1992 27.0788 79.8525L26.2834 79.2464C25.2231 80.6378 24.3596 82.0369 23.6526 83.1899C23.297 83.7698 22.9848 84.2812 22.7035 84.7065C22.419 85.1365 22.1849 85.449 21.9899 85.6439L22.697 86.3511ZM28.625 78.0175C29.2789 77.3224 29.991 76.6656 30.7685 76.0823L30.1684 75.2824C29.3375 75.9057 28.5829 76.6027 27.8966 77.3324L28.625 78.0175ZM33.3744 74.5577C34.7177 73.9796 36.2225 73.6328 37.9163 73.6328V72.6328C36.081 72.6328 34.442 73.0096 32.9791 73.6391L33.3744 74.5577ZM50.6629 89.9544C50.4289 91.0393 50.0654 92.1443 49.6066 93.2542L50.5308 93.6363C51.0073 92.4835 51.3913 91.3206 51.6404 90.1652L50.6629 89.9544ZM48.3406 95.9189C46.9518 98.5308 45.2086 101.063 43.6032 103.311L44.417 103.892C46.0258 101.64 47.8018 99.0622 49.2235 96.3883L48.3406 95.9189ZM38.2399 103.925C37.7946 104.37 37.3073 104.814 36.7916 105.251L37.4384 106.014C37.9712 105.562 38.4791 105.1 38.947 104.632L38.2399 103.925ZM34.9073 106.736C34.0226 107.389 33.1115 108.008 32.2296 108.574L32.7697 109.416C33.6666 108.84 34.5959 108.209 35.501 107.541L34.9073 106.736ZM29.5441 110.199C28.7487 110.651 28.0573 111.019 27.5365 111.279L27.9837 112.174C28.5229 111.904 29.2302 111.528 30.0386 111.068L29.5441 110.199ZM44.0356 85.3884C44.2455 86.9152 43.9034 89.1553 42.2087 92.5447L43.1031 92.9919C44.8444 89.5094 45.2744 87.0573 45.0263 85.2522L44.0356 85.3884ZM34.1369 116.201C36.7479 114.408 38.617 113.293 40.1597 113C40.9081 112.858 41.5649 112.914 42.1914 113.18C42.8261 113.45 43.4664 113.95 44.1491 114.758L44.9127 114.112C44.1668 113.23 43.4066 112.61 42.5822 112.26C41.7495 111.906 40.8885 111.844 39.9733 112.018C38.1889 112.356 36.1481 113.607 33.5708 115.377L34.1369 116.201ZM38.1893 116.885C39.1287 116.273 39.7598 115.935 40.2813 115.828C40.7472 115.733 41.1568 115.818 41.6889 116.196L42.2688 115.382C41.5553 114.874 40.868 114.688 40.0812 114.849C39.3501 114.998 38.5727 115.442 37.6434 116.047L38.1893 116.885ZM46.7184 113.081C47.0385 112.697 47.0387 112.697 47.0388 112.697C47.0388 112.697 47.039 112.697 47.039 112.697C47.0391 112.697 47.0392 112.697 47.0391 112.697C47.0391 112.697 47.0388 112.697 47.0383 112.696C47.0373 112.696 47.0354 112.694 47.0325 112.691C47.0268 112.687 47.0176 112.679 47.0051 112.668C46.9802 112.645 46.9425 112.611 46.8947 112.566C46.7991 112.475 46.6639 112.34 46.5108 112.167C46.2028 111.819 45.8329 111.331 45.5634 110.753C45.2945 110.177 45.1342 109.532 45.2154 108.856C45.2956 108.187 45.6175 107.441 46.3949 106.663L45.6878 105.956C44.7725 106.872 44.3327 107.818 44.2225 108.736C44.1132 109.647 44.3337 110.483 44.6573 111.176C44.9803 111.868 45.4144 112.438 45.7623 112.83C45.9372 113.028 46.0929 113.184 46.2062 113.291C46.2629 113.345 46.3092 113.387 46.3421 113.416C46.3586 113.431 46.3717 113.442 46.3812 113.45C46.386 113.454 46.3898 113.458 46.3927 113.46C46.3941 113.461 46.3953 113.462 46.3962 113.463C46.3967 113.463 46.3971 113.464 46.3975 113.464C46.3976 113.464 46.3979 113.464 46.3979 113.464C46.3981 113.465 46.3983 113.465 46.7184 113.081ZM46.3949 106.663C48.1372 104.921 49.8578 102.333 51.2252 99.6837C52.5918 97.0359 53.6321 94.2757 53.9825 92.1733L52.9961 92.0089C52.6694 93.969 51.6784 96.6254 50.3366 99.2251C48.9957 101.823 47.3309 104.313 45.6878 105.956L46.3949 106.663ZM49.791 110.707C49.5803 110.483 49.469 110.189 49.4917 109.742C49.5153 109.276 49.6852 108.669 50.0303 107.875C50.7205 106.289 52.0348 104.126 53.9117 101.161L53.0668 100.626C51.2007 103.574 49.8403 105.805 49.1133 107.476C48.7498 108.312 48.5256 109.049 48.493 109.692C48.4594 110.353 48.6298 110.932 49.0625 111.392L49.791 110.707ZM30.2069 72.2229C27.6154 73.8136 25.231 76.257 23.2649 79.6531L24.1303 80.1541C26.0244 76.8826 28.2977 74.5681 30.73 73.0751L30.2069 72.2229ZM51.8509 76.886C51.4013 76.3148 50.9251 75.7739 50.4254 75.2652L49.712 75.966C50.186 76.4485 50.6381 76.9619 51.0651 77.5045L51.8509 76.886ZM48.9142 73.8828C44.2214 70.0326 37.9812 68.7154 32.3035 71.1376L32.6959 72.0574C37.9835 69.8016 43.8333 71.0076 48.2799 74.6559L48.9142 73.8828ZM8.97884 14.2187V79.9036H9.97884V14.2187H8.97884ZM8.97884 79.9036V80.5728H9.97884V79.9036H8.97884ZM3.38445 80.3958L9.4782 80.4036L9.47948 79.4036L3.38573 79.3958L3.38445 80.3958ZM12.1872 83.7812H16.2497V82.7812H12.1872V83.7812ZM58.2288 83.7812H64.9997V82.7812H58.2288V83.7812Z" fill="white"/>
</svg>
