<svg width="130" height="130" viewBox="0 0 130 130" fill="none" xmlns="http://www.w3.org/2000/svg">
<path d="M62.7454 76.4644C53.5349 92.4175 33.1358 97.8834 17.1827 88.6729C1.22968 79.4624 -4.23623 59.0633 4.97426 43.1103C14.1848 27.1572 34.5838 21.6913 50.5369 30.9018C66.4899 40.1123 71.9559 60.5114 62.7454 76.4644Z" fill="white" stroke="black"/>
<path fill-rule="evenodd" clip-rule="evenodd" d="M62.834 77.2969C62.9504 77.1041 63.0652 76.9097 63.1784 76.7137C63.2914 76.5178 63.4023 76.3213 63.5111 76.1242L50.6134 68.6778C53.3747 63.7724 55.3101 58.7687 56.4044 54.0391L67.7113 60.5672C67.7229 60.0451 67.7224 59.5234 67.7098 59.0026L56.7036 52.6482C57.1657 50.3221 57.419 48.0731 57.4615 45.947C57.5947 39.2783 55.6455 33.6623 51.3628 30.8248L51.37 30.8123C51.2138 30.718 51.0565 30.6248 50.8983 30.5326L50.6752 30.4038C50.5163 30.3129 50.357 30.2233 50.1972 30.1352L50.19 30.1477C45.5913 27.8575 39.7531 28.9775 34.0445 32.4272C32.2245 33.527 30.4034 34.8709 28.62 36.4341L17.6138 30.0797C17.1565 30.3292 16.7044 30.5895 16.2581 30.8606L27.565 37.3887C24.0162 40.7012 20.6507 44.8791 17.7831 49.7231L4.88542 42.2767C4.77508 42.4594 4.66622 42.6435 4.55885 42.8291C4.55298 42.8392 4.54711 42.8494 4.54125 42.8595C4.53539 42.8697 4.52952 42.8798 4.52367 42.89C4.4166 43.0759 4.31149 43.2624 4.20834 43.4494L17.106 50.8959C14.3448 55.8013 12.4093 60.8049 11.315 65.5345L0.00828544 59.0066C-0.00327771 59.5287 -0.00271961 60.0503 0.00984606 60.5711L11.0158 66.9254C10.5537 69.2515 10.3004 71.5006 10.258 73.6266C10.1248 80.2953 12.074 85.9113 16.3567 88.7488L16.3497 88.7609C16.5425 88.8773 16.7368 88.9921 16.9327 89.1052C17.1287 89.2183 17.3252 89.3292 17.5224 89.438L17.5294 89.4259C22.1281 91.7161 27.9663 90.5962 33.675 87.1464C35.4949 86.0466 37.316 84.7028 39.0994 83.1395L50.1054 89.4938C50.5627 89.2443 51.0147 88.9839 51.4611 88.7129L40.1544 82.1849C43.7032 78.8724 47.0688 74.6945 49.9364 69.8505L62.834 77.2969ZM33.6119 58.8619L18.9559 50.4002C21.8473 45.5187 25.2424 41.351 28.7929 38.0976L41.3983 45.3754L33.6119 58.8619ZM42.0754 44.2026L29.8609 37.1505C31.475 35.7662 33.1136 34.5719 34.7448 33.5862C40.2412 30.2648 45.5152 29.3805 49.5113 31.3233L42.0754 44.2026ZM43.2482 44.8797L50.684 32.0004C54.3646 34.4897 56.2358 39.4992 56.1076 45.92C56.0695 47.8255 55.8546 49.8417 55.4627 51.9318L43.2482 44.8797ZM42.5711 46.0524L55.1765 53.3302C54.1342 58.0317 52.2225 63.0558 49.4406 68.0006L34.7846 59.539L42.5711 46.0524ZM34.1075 60.7117L48.7636 69.1734C45.8721 74.0549 42.477 78.2226 38.9265 81.476L26.3211 74.1983L34.1075 60.7117ZM25.644 75.371L37.8586 82.4231C36.2444 83.8075 34.6058 85.0017 32.9746 85.9874C27.4782 89.3089 22.2042 90.1931 18.2081 88.2503L25.644 75.371ZM24.4713 74.6939L17.0354 87.5732C13.3548 85.0839 11.4836 80.0744 11.6119 73.6537C11.6499 71.7481 11.8648 69.7319 12.2567 67.6418L24.4713 74.6939ZM18.2788 51.573C15.4969 56.5178 13.5852 61.5419 12.5429 66.2434L25.1483 73.5212L32.9348 60.0346L18.2788 51.573Z" fill="black"/>
<path d="M118.698 111.042H85.1042C83.7234 111.042 82.6042 109.922 82.6042 108.542V68.9584L92.0833 59.5834H118.698C120.079 59.5834 121.198 60.7026 121.198 62.0834V62.2915V108.542C121.198 109.922 120.079 111.042 118.698 111.042Z" fill="white"/>
<path d="M119.619 13.5023L111.861 20.9354L120.962 46.3401C121.475 47.7696 121.115 49.3656 120.039 50.4391L119.018 51.4583L101.247 30.0644L90.3047 39.4753L90.655 42.0449C90.9864 44.4764 90.1599 46.9227 88.4208 48.6579L87.0056 50.0698L75.871 38.961L77.2862 37.5491C79.0253 35.814 81.4773 34.9894 83.9145 35.3201L86.4901 35.6696L95.9229 24.7529L74.4792 7.02346L75.5007 6.00425C76.5767 4.93077 78.1765 4.57208 79.6094 5.08304L105.073 14.1632L112.45 6.35066C115.106 3.53769 118.992 2.23086 122.813 2.86617C122.944 2.888 123.047 2.99069 123.069 3.12164C123.707 6.93715 122.416 10.823 119.619 13.5023Z" fill="white"/>
<path d="M4.97369 23.8942L13.1562 36.708L21.3387 23.8942C22.9433 20.5847 22.3963 16.6344 19.9528 13.8855C16.3355 9.81598 9.97692 9.81598 6.35959 13.8855C3.91607 16.6344 3.36908 20.5847 4.97369 23.8942Z" fill="white"/>
<path d="M18.5728 19.7809C18.5728 22.7724 16.1477 25.1976 13.1562 25.1976C10.1646 25.1976 7.73951 22.7724 7.73951 19.7809C7.73951 16.7894 10.1646 14.3642 13.1562 14.3642C16.1477 14.3642 18.5728 16.7894 18.5728 19.7809Z" fill="white"/>
<path d="M63.3178 91.3555L61.1354 87.9379L55.1353 78.5417L46.9528 91.3555C46.0828 93.1498 45.8453 95.1325 46.1996 97.01C46.4988 98.5953 47.22 100.106 48.3387 101.364C51.956 105.434 58.3146 105.434 61.9319 101.364C64.3754 98.6152 64.9224 94.665 63.3178 91.3555Z" fill="white"/>
<path d="M49.7186 95.4688C49.7186 92.4772 52.1438 90.0521 55.1353 90.0521C58.1269 90.0521 60.552 92.4772 60.552 95.4688C60.552 98.4603 58.1269 100.885 55.1353 100.885C52.1438 100.885 49.7186 98.4603 49.7186 95.4688Z" fill="white"/>
<path d="M82.6042 68.9584L82.2526 68.6029L82.1042 68.7496V68.9584H82.6042ZM92.0833 59.5834V59.0834H91.8778L91.7317 59.2279L92.0833 59.5834ZM67.8115 79.3222L67.3785 79.0722L67.8115 79.3222ZM14.0204 117.136V116.636C13.8878 116.636 13.7606 116.688 13.6668 116.782C13.5731 116.876 13.5204 117.003 13.5204 117.136L14.0204 117.136ZM60.0621 117.136H60.5621C60.5621 116.86 60.3382 116.636 60.0621 116.636L60.0621 117.136ZM59.5621 121.198C59.5621 121.474 59.7859 121.698 60.0621 121.698C60.3382 121.698 60.5621 121.474 60.5621 121.198H59.5621ZM13.5204 121.198C13.5204 121.474 13.7442 121.698 14.0204 121.698C14.2965 121.698 14.5204 121.474 14.5204 121.198H13.5204ZM111.861 20.9354L111.515 20.5743L111.281 20.7987L111.39 21.104L111.861 20.9354ZM119.619 13.5023L119.965 13.8633L119.619 13.5023ZM120.962 46.3401L121.433 46.1714L120.962 46.3401ZM120.039 50.4391L119.686 50.0852L120.039 50.4391ZM119.018 51.4583L118.633 51.7778L118.983 52.1992L119.371 51.8123L119.018 51.4583ZM101.247 30.0644L101.631 29.745L101.306 29.3537L100.921 29.6854L101.247 30.0644ZM75.871 38.961L75.5178 38.6071L75.163 38.961L75.5178 39.315L75.871 38.961ZM87.0056 50.0698L86.6524 50.4237L87.0056 50.776L87.3587 50.4237L87.0056 50.0698ZM88.4208 48.6579L88.7739 49.0118L88.4208 48.6579ZM90.3047 39.4753L89.9787 39.0962L89.7726 39.2735L89.8093 39.5429L90.3047 39.4753ZM90.655 42.0449L90.1596 42.1125L90.655 42.0449ZM105.073 14.1632L104.905 14.6342L105.213 14.7438L105.437 14.5065L105.073 14.1632ZM112.45 6.35066L112.086 6.00739L112.45 6.35066ZM79.6094 5.08304L79.7773 4.61209L79.6094 5.08304ZM75.5007 6.00425L75.1476 5.65029V5.65029L75.5007 6.00425ZM74.4792 7.02346L74.126 6.6695L73.7364 7.05816L74.1606 7.40881L74.4792 7.02346ZM95.9229 24.7529L96.3012 25.0798L96.6353 24.6932L96.2415 24.3676L95.9229 24.7529ZM77.2862 37.5491L76.933 37.1952V37.1952L77.2862 37.5491ZM86.4901 35.6696L86.4229 36.165L86.6913 36.2014L86.8684 35.9965L86.4901 35.6696ZM83.9145 35.3201L83.8472 35.8155H83.8473L83.9145 35.3201ZM122.813 2.86617L122.895 2.37295V2.37295L122.813 2.86617ZM123.069 3.12164L122.576 3.20401V3.20402L123.069 3.12164ZM4.97369 23.8942L4.52379 24.1123L4.53654 24.1386L4.55228 24.1633L4.97369 23.8942ZM13.1562 36.708L12.7348 36.9771L13.1562 37.637L13.5776 36.9771L13.1562 36.708ZM21.3387 23.8942L21.7601 24.1633L21.7758 24.1386L21.7886 24.1123L21.3387 23.8942ZM19.9528 13.8855L20.3265 13.5533L19.9528 13.8855ZM6.35959 13.8855L6.7333 14.2177L6.35959 13.8855ZM63.3178 91.3555L63.7677 91.1374L63.755 91.111L63.7392 91.0864L63.3178 91.3555ZM55.1353 78.5417L55.5567 78.2726L55.1353 77.6126L54.7139 78.2726L55.1353 78.5417ZM46.9528 91.3555L46.5314 91.0864L46.5157 91.111L46.5029 91.1374L46.9528 91.3555ZM48.3387 101.364L47.965 101.696L48.3387 101.364ZM61.9319 101.364L61.5582 101.032L61.9319 101.364ZM49.7186 95.4688H50.2186H49.7186ZM55.1353 90.0521V89.5521V90.0521ZM60.552 95.4688H61.052H60.552ZM55.1353 100.885V100.385V100.885ZM46.1996 97.01L46.691 96.9172L46.1996 97.01ZM61.1354 87.9379L60.714 88.207L61.1354 87.9379ZM129.823 113.958V67.5001H128.823V113.958H129.823ZM93.2292 116.958H126.823V115.958H93.2292V116.958ZM91.2292 113.958V113.75H90.2292V113.958H91.2292ZM126.823 64.5001H125.26V65.5001H126.823V64.5001ZM128.823 113.958C128.823 115.063 127.927 115.958 126.823 115.958V116.958C128.48 116.958 129.823 115.615 129.823 113.958H128.823ZM93.2292 115.958C92.1246 115.958 91.2292 115.063 91.2292 113.958H90.2292C90.2292 115.615 91.5723 116.958 93.2292 116.958V115.958ZM129.823 67.5001C129.823 65.8433 128.48 64.5001 126.823 64.5001V65.5001C127.927 65.5001 128.823 66.3955 128.823 67.5001H129.823ZM89.1667 114.25H122.76V113.25H89.1667V114.25ZM125.76 111.25V64.7915H124.76V111.25H125.76ZM122.76 114.25C124.417 114.25 125.76 112.907 125.76 111.25H124.76C124.76 112.354 123.865 113.25 122.76 113.25V114.25ZM89.1667 113.25C88.0621 113.25 87.1667 112.354 87.1667 111.25H86.1667C86.1667 112.907 87.5098 114.25 89.1667 114.25V113.25ZM125.76 64.7915C125.76 63.1346 124.417 61.7915 122.76 61.7915V62.7915C123.865 62.7915 124.76 63.6869 124.76 64.7915H125.76ZM85.1042 111.542H118.698V110.542H85.1042V111.542ZM89.5833 68.4584H82.6042V69.4584H89.5833V68.4584ZM82.1042 68.9584V108.542H83.1042V68.9584H82.1042ZM118.698 59.0834H92.0833V60.0834H118.698V59.0834ZM91.5833 59.5834V66.4584H92.5833V59.5834H91.5833ZM82.9558 69.3139L92.4349 59.9389L91.7317 59.2279L82.2526 68.6029L82.9558 69.3139ZM116.458 74.6563H87.3438V75.6563H116.458V74.6563ZM116.458 78.7188H87.3438V79.7188H116.458V78.7188ZM116.458 82.7813H87.3438V83.7813H116.458V82.7813ZM116.458 86.8438H87.3438V87.8438H116.458V86.8438ZM116.458 90.9063H87.3438V91.9063H116.458V90.9063ZM116.458 94.9688H87.3438V95.9688H116.458V94.9688ZM118.698 111.542C120.355 111.542 121.698 110.199 121.698 108.542H120.698C120.698 109.646 119.802 110.542 118.698 110.542V111.542ZM85.1042 110.542C83.9996 110.542 83.1042 109.646 83.1042 108.542H82.1042C82.1042 110.199 83.4473 111.542 85.1042 111.542V110.542ZM89.5833 69.4584C91.2402 69.4584 92.5833 68.1152 92.5833 66.4584H91.5833C91.5833 67.5629 90.6879 68.4584 89.5833 68.4584V69.4584ZM121.698 62.0834C121.698 60.4265 120.355 59.0834 118.698 59.0834V60.0834C119.802 60.0834 120.698 60.9788 120.698 62.0834H121.698ZM121.698 108.542V62.2915H120.698V108.542H121.698ZM121.698 62.2915V62.0834H120.698V62.2915H121.698ZM122.76 61.7915H121.198V62.7915H122.76V61.7915ZM16.4418 88.7554L13.7335 93.4463L14.5995 93.9463L17.3079 89.2554L16.4418 88.7554ZM13.7335 93.4463L11.0252 98.1373L11.8912 98.6373L14.5995 93.9463L13.7335 93.4463ZM55.7127 20.7363L53.0043 25.4273L53.8704 25.9273L56.5787 21.2363L55.7127 20.7363ZM53.0043 25.4273L50.296 30.1182L51.162 30.6182L53.8704 25.9273L53.0043 25.4273ZM68.2445 79.5722C79.2269 60.5501 72.7094 36.2267 53.6873 25.2443L53.1873 26.1103C71.7311 36.8165 78.0847 60.5284 67.3785 79.0722L68.2445 79.5722ZM13.9165 94.1294C21.1422 98.3011 29.3493 99.947 37.0801 99.3433L37.0023 98.3464C29.4622 98.9352 21.4582 97.3289 14.4165 93.2633L13.9165 94.1294ZM36.5412 98.8449V117.136H37.5412V98.8449H36.5412ZM37.0412 116.636H14.0204V117.636H37.0412V116.636ZM60.0621 116.636L37.0412 116.636L37.0412 117.636L60.062 117.636L60.0621 116.636ZM59.5621 117.136V121.198H60.5621V117.136H59.5621ZM13.5204 117.136L13.5204 121.198H14.5204L14.5204 117.136L13.5204 117.136ZM112.207 21.2964L119.965 13.8633L119.274 13.1413L111.515 20.5743L112.207 21.2964ZM111.39 21.104L120.492 46.5087L121.433 46.1714L112.332 20.7667L111.39 21.104ZM119.686 50.0852L118.664 51.1044L119.371 51.8123L120.392 50.7931L119.686 50.0852ZM119.402 51.1389L101.631 29.745L100.862 30.3839L118.633 51.7778L119.402 51.1389ZM75.5178 39.315L86.6524 50.4237L87.3587 49.7158L76.2241 38.6071L75.5178 39.315ZM87.3587 50.4237L88.7739 49.0118L88.0676 48.3039L86.6524 49.7158L87.3587 50.4237ZM90.6307 39.8544L101.573 30.4435L100.921 29.6854L89.9787 39.0962L90.6307 39.8544ZM91.1504 41.9774L90.8001 39.4078L89.8093 39.5429L90.1596 42.1125L91.1504 41.9774ZM105.437 14.5065L112.813 6.69392L112.086 6.00739L104.71 13.82L105.437 14.5065ZM105.241 13.6923L79.7773 4.61209L79.4414 5.55399L104.905 14.6342L105.241 13.6923ZM75.1476 5.65029L74.126 6.6695L74.8323 7.37743L75.8539 6.35821L75.1476 5.65029ZM74.1606 7.40881L95.6043 25.1383L96.2415 24.3676L74.7978 6.63812L74.1606 7.40881ZM76.2241 39.315L77.6393 37.9031L76.933 37.1952L75.5178 38.6071L76.2241 39.315ZM86.8684 35.9965L96.3012 25.0798L95.5446 24.426L86.1118 35.3426L86.8684 35.9965ZM83.8473 35.8155L86.4229 36.165L86.5573 35.1741L83.9817 34.8246L83.8473 35.8155ZM77.6393 37.9031C79.2679 36.2782 81.5644 35.5058 83.8472 35.8155L83.9817 34.8246C81.3903 34.473 78.7827 35.3498 76.933 37.1952L77.6393 37.9031ZM79.7773 4.61209C78.1629 4.03641 76.3603 4.44039 75.1476 5.65029L75.8539 6.35821C76.7931 5.42115 78.19 5.10776 79.4414 5.55399L79.7773 4.61209ZM88.7739 49.0118C90.6237 47.1663 91.503 44.5641 91.1504 41.9774L90.1596 42.1125C90.4699 44.3887 89.6962 46.6791 88.0676 48.3039L88.7739 49.0118ZM120.492 46.5087C120.939 47.7558 120.625 49.1483 119.686 50.0852L120.392 50.7931C121.605 49.583 122.011 47.7835 121.433 46.1714L120.492 46.5087ZM112.813 6.69392C115.355 4.00217 119.074 2.75136 122.731 3.3594L122.895 2.37295C118.91 1.71036 114.857 3.07321 112.086 6.00739L112.813 6.69392ZM123.562 3.03926C123.505 2.69711 123.237 2.42973 122.895 2.37295L122.731 3.3594C122.652 3.34626 122.589 3.28428 122.576 3.20401L123.562 3.03926ZM119.965 13.8633C122.881 11.0698 124.227 7.01794 123.562 3.03925L122.576 3.20402C123.186 6.85635 121.951 10.5763 119.274 13.1413L119.965 13.8633ZM4.55228 24.1633L12.7348 36.9771L13.5776 36.4389L5.3951 23.6251L4.55228 24.1633ZM13.5776 36.9771L21.7601 24.1633L20.9173 23.6251L12.7348 36.4389L13.5776 36.9771ZM21.7886 24.1123C23.4814 20.6208 22.9044 16.4534 20.3265 13.5533L19.5791 14.2177C21.8882 16.8155 22.4052 20.5485 20.8888 23.676L21.7886 24.1123ZM20.3265 13.5533C16.5103 9.26004 9.80211 9.26004 5.98589 13.5533L6.7333 14.2177C10.1517 10.3719 16.1606 10.3719 19.5791 14.2177L20.3265 13.5533ZM5.98589 13.5533C3.40801 16.4534 2.83095 20.6208 4.52379 24.1123L5.4236 23.676C3.90722 20.5485 4.42413 16.8155 6.7333 14.2177L5.98589 13.5533ZM18.0728 19.7809C18.0728 22.4963 15.8716 24.6976 13.1562 24.6976V25.6976C16.4239 25.6976 19.0728 23.0486 19.0728 19.7809H18.0728ZM13.1562 24.6976C10.4408 24.6976 8.23951 22.4963 8.23951 19.7809H7.23951C7.23951 23.0486 9.88849 25.6976 13.1562 25.6976V24.6976ZM8.23951 19.7809C8.23951 17.0655 10.4408 14.8642 13.1562 14.8642V13.8642C9.88849 13.8642 7.23951 16.5132 7.23951 19.7809H8.23951ZM13.1562 14.8642C15.8716 14.8642 18.0728 17.0655 18.0728 19.7809H19.0728C19.0728 16.5132 16.4239 13.8642 13.1562 13.8642V14.8642ZM54.7139 78.2726L46.5314 91.0864L47.3742 91.6246L55.5567 78.8108L54.7139 78.2726ZM47.965 101.696C51.7812 105.99 58.4894 105.99 62.3056 101.696L61.5582 101.032C58.1398 104.878 52.1308 104.878 48.7124 101.032L47.965 101.696ZM62.3056 101.696C64.8835 98.7963 65.4605 94.6288 63.7677 91.1374L62.8679 91.5736C64.3843 94.7012 63.8674 98.4342 61.5582 101.032L62.3056 101.696ZM50.2186 95.4688C50.2186 92.7534 52.4199 90.5521 55.1353 90.5521V89.5521C51.8676 89.5521 49.2186 92.2011 49.2186 95.4688H50.2186ZM55.1353 90.5521C57.8507 90.5521 60.052 92.7534 60.052 95.4688H61.052C61.052 92.2011 58.403 89.5521 55.1353 89.5521V90.5521ZM60.052 95.4688C60.052 98.1842 57.8507 100.385 55.1353 100.385V101.385C58.403 101.385 61.052 98.7364 61.052 95.4688H60.052ZM55.1353 100.385C52.4199 100.385 50.2186 98.1842 50.2186 95.4688H49.2186C49.2186 98.7364 51.8676 101.385 55.1353 101.385V100.385ZM46.5029 91.1374C45.5851 93.0304 45.3346 95.1222 45.7083 97.1027L46.691 96.9172C46.3561 95.1428 46.5806 93.2693 47.4027 91.5736L46.5029 91.1374ZM45.7083 97.1027C46.0239 98.7751 46.7849 100.369 47.965 101.696L48.7124 101.032C47.6552 99.8426 46.9737 98.4155 46.691 96.9172L45.7083 97.1027ZM37.0801 99.3433C40.2499 99.0958 43.363 98.4701 46.356 97.4849L46.0433 96.535C43.1266 97.4951 40.0923 98.1051 37.0023 98.3464L37.0801 99.3433ZM61.4847 88.2957C64.063 85.7785 66.3452 82.8619 68.2445 79.5722L67.3785 79.0722C65.5248 82.2828 63.299 85.1269 60.7861 87.5801L61.4847 88.2957ZM63.7392 91.0864L61.5568 87.6688L60.714 88.207L62.8964 91.6246L63.7392 91.0864ZM61.5568 87.6688L55.5567 78.2726L54.7139 78.8108L60.714 88.207L61.5568 87.6688Z" fill="black"/>
<rect x="8.42676" y="121.021" width="57.2292" height="8.47917" rx="1.5" fill="white" stroke="black"/>
</svg>
