<svg width="131" height="131" viewBox="0 0 131 131" fill="none" xmlns="http://www.w3.org/2000/svg">
<path d="M28.7604 107.979V99.8542H31.4688V107.979H28.7604Z" fill="white"/>
<path d="M62.6146 107.979V99.8542H65.3229V107.979H62.6146Z" fill="white"/>
<path d="M40.2708 107.979V99.8542H42.9792V107.979H40.2708Z" fill="white"/>
<path d="M100.531 30.7917V22.6667H103.24V30.7917H100.531Z" fill="white"/>
<path d="M100.531 71.4167V63.2917H103.24V71.4167H100.531Z" fill="white"/>
<path d="M1 3.70833C1 2.21256 2.21256 1 3.70833 1H95.7917C97.2874 1 98.5 2.21256 98.5 3.70833V91.7292C98.5 93.2249 97.2874 94.4375 95.7917 94.4375H3.70833C2.21256 94.4375 1 93.2249 1 91.7292V3.70833Z" fill="white"/>
<path d="M56.2972 100.761C56.0502 100.885 55.9501 101.185 56.0736 101.432C56.1971 101.679 56.4975 101.779 56.7444 101.656L56.2972 100.761ZM59.2292 99.8542H59.7292C59.7292 99.6809 59.6394 99.52 59.492 99.4288C59.3446 99.3377 59.1606 99.3295 59.0056 99.407L59.2292 99.8542ZM58.7292 107.979C58.7292 108.255 58.953 108.479 59.2292 108.479C59.5053 108.479 59.7292 108.255 59.7292 107.979H58.7292ZM22.4431 100.761C22.1961 100.885 22.096 101.185 22.2195 101.432C22.3429 101.679 22.6433 101.779 22.8903 101.656L22.4431 100.761ZM25.375 99.8542H25.875C25.875 99.6809 25.7853 99.52 25.6379 99.4288C25.4905 99.3377 25.3064 99.3295 25.1514 99.407L25.375 99.8542ZM24.875 107.979C24.875 108.255 25.0989 108.479 25.375 108.479C25.6511 108.479 25.875 108.255 25.875 107.979H24.875ZM33.9535 100.761C33.7065 100.885 33.6064 101.185 33.7299 101.432C33.8534 101.679 34.1537 101.779 34.4007 101.656L33.9535 100.761ZM36.8854 99.8542H37.3854C37.3854 99.6809 37.2957 99.52 37.1483 99.4288C37.0009 99.3377 36.8168 99.3295 36.6618 99.407L36.8854 99.8542ZM36.3854 107.979C36.3854 108.255 36.6093 108.479 36.8854 108.479C37.1616 108.479 37.3854 108.255 37.3854 107.979H36.3854ZM67.8076 100.761C67.5607 100.885 67.4605 101.185 67.584 101.432C67.7075 101.679 68.0079 101.779 68.2549 101.656L67.8076 100.761ZM70.7396 99.8542H71.2396C71.2396 99.6809 71.1499 99.52 71.0025 99.4288C70.855 99.3377 70.671 99.3295 70.516 99.407L70.7396 99.8542ZM70.2396 107.979C70.2396 108.255 70.4634 108.479 70.7396 108.479C71.0157 108.479 71.2396 108.255 71.2396 107.979H70.2396ZM45.4639 100.761C45.2169 100.885 45.1168 101.185 45.2403 101.432C45.3638 101.679 45.6641 101.779 45.9111 101.656L45.4639 100.761ZM48.3958 99.8542H48.8958C48.8958 99.6809 48.8061 99.52 48.6587 99.4288C48.5113 99.3377 48.3272 99.3295 48.1722 99.407L48.3958 99.8542ZM47.8958 107.979C47.8958 108.255 48.1197 108.479 48.3958 108.479C48.672 108.479 48.8958 108.255 48.8958 107.979H47.8958ZM50.8806 100.761C50.6336 100.885 50.5335 101.185 50.657 101.432C50.7804 101.679 51.0808 101.779 51.3278 101.656L50.8806 100.761ZM53.8125 99.8542H54.3125C54.3125 99.6809 54.2228 99.52 54.0754 99.4288C53.928 99.3377 53.7439 99.3295 53.5889 99.407L53.8125 99.8542ZM53.3125 107.979C53.3125 108.255 53.5364 108.479 53.8125 108.479C54.0886 108.479 54.3125 108.255 54.3125 107.979H53.3125ZM28.7604 99.8542V99.3542C28.4843 99.3542 28.2604 99.578 28.2604 99.8542H28.7604ZM28.7604 107.979H28.2604C28.2604 108.255 28.4843 108.479 28.7604 108.479V107.979ZM31.4688 107.979V108.479C31.7449 108.479 31.9688 108.255 31.9688 107.979H31.4688ZM31.4688 99.8542H31.9688C31.9688 99.578 31.7449 99.3542 31.4688 99.3542V99.8542ZM62.6146 99.8542V99.3542C62.3384 99.3542 62.1146 99.578 62.1146 99.8542H62.6146ZM62.6146 107.979H62.1146C62.1146 108.255 62.3384 108.479 62.6146 108.479V107.979ZM65.3229 107.979V108.479C65.5991 108.479 65.8229 108.255 65.8229 107.979H65.3229ZM65.3229 99.8542H65.8229C65.8229 99.578 65.5991 99.3542 65.3229 99.3542V99.8542ZM40.2708 99.8542V99.3542C39.9947 99.3542 39.7708 99.578 39.7708 99.8542H40.2708ZM40.2708 107.979H39.7708C39.7708 108.255 39.9947 108.479 40.2708 108.479V107.979ZM42.9792 107.979V108.479C43.2553 108.479 43.4792 108.255 43.4792 107.979H42.9792ZM42.9792 99.8542H43.4792C43.4792 99.578 43.2553 99.3542 42.9792 99.3542V99.8542ZM108.656 22.6667H109.156V21.8577L108.433 22.2195L108.656 22.6667ZM100.531 22.6667V22.1667H100.031V22.6667H100.531ZM100.531 30.7917H100.031V31.2917H100.531V30.7917ZM103.24 30.7917V31.2917H103.74V30.7917H103.24ZM103.24 22.6667H103.74V22.1667H103.24V22.6667ZM108.656 36.2083H109.156V35.3993L108.433 35.7611L108.656 36.2083ZM103.24 36.2083H103.74V35.3993L103.016 35.7611L103.24 36.2083ZM108.656 49.75H109.156V48.941L108.433 49.3028L108.656 49.75ZM103.24 49.75H103.74V48.941L103.016 49.3028L103.24 49.75ZM108.656 63.2917H109.156V62.4827L108.433 62.8445L108.656 63.2917ZM100.531 63.2917V62.7917H100.031V63.2917H100.531ZM100.531 71.4167H100.031V71.9167H100.531V71.4167ZM103.24 71.4167V71.9167H103.74V71.4167H103.24ZM103.24 63.2917H103.74V62.7917H103.24V63.2917ZM116.958 20.2176V113.137H117.958V20.2176H116.958ZM113.137 116.958H20.2176V117.958H113.137V116.958ZM20.2176 116.958C18.1069 116.958 16.3958 115.247 16.3958 113.137H15.3958C15.3958 115.8 17.5546 117.958 20.2176 117.958V116.958ZM116.958 113.137C116.958 115.247 115.247 116.958 113.137 116.958V117.958C115.8 117.958 117.958 115.8 117.958 113.137H116.958ZM113.137 16.3958C115.247 16.3958 116.958 18.1069 116.958 20.2176H117.958C117.958 17.5546 115.8 15.3958 113.137 15.3958V16.3958ZM16.3958 113.137V94.4375H15.3958V113.137H16.3958ZM99.1771 16.3958H113.137V15.3958H99.1771V16.3958ZM56.7444 101.656L59.4528 100.301L59.0056 99.407L56.2972 100.761L56.7444 101.656ZM58.7292 99.8542V107.979H59.7292V99.8542H58.7292ZM22.8903 101.656L25.5986 100.301L25.1514 99.407L22.4431 100.761L22.8903 101.656ZM24.875 99.8542V107.979H25.875V99.8542H24.875ZM34.4007 101.656L37.109 100.301L36.6618 99.407L33.9535 100.761L34.4007 101.656ZM36.3854 99.8542V107.979H37.3854V99.8542H36.3854ZM68.2549 101.656L70.9632 100.301L70.516 99.407L67.8076 100.761L68.2549 101.656ZM70.2396 99.8542V107.979H71.2396V99.8542H70.2396ZM45.9111 101.656L48.6194 100.301L48.1722 99.407L45.4639 100.761L45.9111 101.656ZM47.8958 99.8542V107.979H48.8958V99.8542H47.8958ZM51.3278 101.656L54.0361 100.301L53.5889 99.407L50.8806 100.761L51.3278 101.656ZM53.3125 99.8542V107.979H54.3125V99.8542H53.3125ZM28.2604 99.8542V107.979H29.2604V99.8542H28.2604ZM28.7604 108.479H31.4688V107.479H28.7604V108.479ZM31.9688 107.979V99.8542H30.9688V107.979H31.9688ZM31.4688 99.3542H28.7604V100.354H31.4688V99.3542ZM62.1146 99.8542V107.979H63.1146V99.8542H62.1146ZM62.6146 108.479H65.3229V107.479H62.6146V108.479ZM65.8229 107.979V99.8542H64.8229V107.979H65.8229ZM65.3229 99.3542H62.6146V100.354H65.3229V99.3542ZM39.7708 99.8542V107.979H40.7708V99.8542H39.7708ZM40.2708 108.479H42.9792V107.479H40.2708V108.479ZM43.4792 107.979V99.8542H42.4792V107.979H43.4792ZM42.9792 99.3542H40.2708V100.354H42.9792V99.3542ZM106.172 24.468L108.88 23.1139L108.433 22.2195L105.724 23.5736L106.172 24.468ZM108.156 22.6667V30.7917H109.156V22.6667H108.156ZM100.031 22.6667V30.7917H101.031V22.6667H100.031ZM100.531 31.2917H103.24V30.2917H100.531V31.2917ZM103.74 30.7917V22.6667H102.74V30.7917H103.74ZM103.24 22.1667H100.531V23.1667H103.24V22.1667ZM106.172 38.0097L108.88 36.6555L108.433 35.7611L105.724 37.1153L106.172 38.0097ZM108.156 36.2083V44.3333H109.156V36.2083H108.156ZM100.755 38.0097L103.463 36.6555L103.016 35.7611L100.308 37.1153L100.755 38.0097ZM102.74 36.2083V44.3333H103.74V36.2083H102.74ZM106.172 51.5514L108.88 50.1972L108.433 49.3028L105.724 50.657L106.172 51.5514ZM108.156 49.75V57.875H109.156V49.75H108.156ZM100.755 51.5514L103.463 50.1972L103.016 49.3028L100.308 50.657L100.755 51.5514ZM102.74 49.75V57.875H103.74V49.75H102.74ZM106.172 65.093L108.88 63.7389L108.433 62.8445L105.724 64.1986L106.172 65.093ZM108.156 63.2917V71.4167H109.156V63.2917H108.156ZM100.031 63.2917V71.4167H101.031V63.2917H100.031ZM100.531 71.9167H103.24V70.9167H100.531V71.9167ZM103.74 71.4167V63.2917H102.74V71.4167H103.74ZM103.24 62.7917H100.531V63.7917H103.24V62.7917ZM1.5 3.70833C1.5 2.4887 2.4887 1.5 3.70833 1.5V0.5C1.93642 0.5 0.5 1.93642 0.5 3.70833H1.5ZM3.70833 1.5H95.7917V0.5H3.70833V1.5ZM95.7917 1.5C97.0113 1.5 98 2.4887 98 3.70833H99C99 1.93642 97.5636 0.5 95.7917 0.5V1.5ZM98 3.70833V91.7292H99V3.70833H98ZM98 91.7292C98 92.9488 97.0113 93.9375 95.7917 93.9375V94.9375C97.5636 94.9375 99 93.5011 99 91.7292H98ZM95.7917 93.9375H3.70833V94.9375H95.7917V93.9375ZM3.70833 93.9375C2.48871 93.9375 1.5 92.9488 1.5 91.7292H0.5C0.5 93.5011 1.93642 94.9375 3.70833 94.9375V93.9375ZM1.5 91.7292V3.70833H0.5V91.7292H1.5ZM13.1389 16.6994V29.1994H14.1389V16.6994H13.1389ZM16.3175 32.378H32.5973V31.378H16.3175V32.378ZM32.5973 32.378H49.7501V31.378H32.5973V32.378ZM50.2501 31.878V15.8066H49.2501V31.878H50.2501ZM49.7501 32.378H66.9028V31.378H49.7501V32.378ZM66.9028 32.378H83.1826V31.378H66.9028V32.378ZM86.3612 29.1994V15.8066H85.3612V29.1994H86.3612ZM32.0973 31.878V48.3959H33.0973V31.878H32.0973ZM32.0973 49.2887V61.7887H33.0973V49.2887H32.0973ZM35.2759 64.9673H49.7501V63.9673H35.2759V64.9673ZM49.7501 64.9673H64.2243V63.9673H49.7501V64.9673ZM49.2501 64.4673V73.8423H50.2501V64.4673H49.2501ZM64.2243 64.9673C65.9797 64.9673 67.4028 63.5442 67.4028 61.7887H66.4028C66.4028 62.9919 65.4275 63.9673 64.2243 63.9673V64.9673ZM83.1826 32.378C84.9381 32.378 86.3612 30.9549 86.3612 29.1994H85.3612C85.3612 30.4026 84.3858 31.378 83.1826 31.378V32.378ZM32.0973 61.7887C32.0973 63.5442 33.5204 64.9673 35.2759 64.9673V63.9673C34.0727 63.9673 33.0973 62.9919 33.0973 61.7887H32.0973ZM13.1389 29.1994C13.1389 30.9549 14.562 32.378 16.3175 32.378V31.378C15.1143 31.378 14.1389 30.4026 14.1389 29.1994H13.1389ZM67.4028 61.7887V31.878H66.4028V61.7887H67.4028Z" fill="black"/>
<path d="M75.5281 9.55647C75.5281 8.85158 76.1074 8.27075 76.8337 8.27075H91.2781C92.0044 8.27075 92.5837 8.85158 92.5837 9.55647V23.8422C92.5837 24.5471 92.0044 25.1279 91.2781 25.1279H76.8337C76.1074 25.1279 75.5281 24.5471 75.5281 23.8422V9.55647ZM6.91699 9.55647C6.91699 8.85158 7.49629 8.27075 8.22255 8.27075H22.667C23.3933 8.27075 23.9725 8.85158 23.9725 9.55647V23.8422C23.9725 24.5471 23.3933 25.1279 22.667 25.1279H8.22255C7.49629 25.1279 6.91699 24.5471 6.91699 23.8422V9.55647ZM41.2225 9.55647C41.2225 8.85158 41.8018 8.27075 42.5281 8.27075H56.9726C57.6988 8.27075 58.2781 8.85158 58.2781 9.55647V23.8422C58.2781 24.5471 57.6988 25.1279 56.9726 25.1279H42.5281C41.8018 25.1279 41.2225 24.5471 41.2225 23.8422V9.55647ZM41.2226 72.9494C41.2226 72.2393 41.7982 71.6637 42.5083 71.6637H56.9924C57.7025 71.6637 58.2782 72.2393 58.2782 72.9494V87.2351C58.2782 87.9452 57.7025 88.5208 56.9924 88.5208H42.5083C41.7982 88.5208 41.2226 87.9452 41.2226 87.2351V72.9494ZM24.0697 40.8064C24.0697 40.1016 24.649 39.5207 25.3753 39.5207H39.8197C40.546 39.5207 41.1253 40.1016 41.1253 40.8064V55.0922C41.1253 55.797 40.546 56.3779 39.8197 56.3779H25.3753C24.649 56.3779 24.0697 55.797 24.0697 55.0922V40.8064ZM58.3753 40.8064C58.3753 40.1016 58.9546 39.5207 59.6808 39.5207H74.1253C74.8515 39.5207 75.4308 40.1016 75.4308 40.8064V55.0922C75.4308 55.797 74.8515 56.3779 74.1253 56.3779H59.6808C58.9546 56.3779 58.3753 55.797 58.3753 55.0922V40.8064ZM67.8545 70.0624C67.8545 68.8428 68.8432 67.8541 70.0628 67.8541H128.292C129.512 67.8541 130.5 68.8428 130.5 70.0624V128.292C130.5 129.511 129.512 130.5 128.292 130.5H70.0628C68.8432 130.5 67.8545 129.511 67.8545 128.292V70.0624Z" fill="white" stroke="black"/>
<path d="M75.4795 100.62V108.888C75.4795 109.636 76.0858 110.242 76.8337 110.242C77.5815 110.242 78.1878 109.636 78.1878 108.888V84.9226C78.1878 83.9878 78.9457 83.2299 79.8805 83.2299C80.8154 83.2299 81.5732 83.9878 81.5732 84.9226V116.104C81.5732 116.852 82.1795 117.458 82.9274 117.458C83.6753 117.458 84.2816 116.852 84.2816 116.104V101.422C84.2816 100.674 84.8879 100.068 85.6357 100.068C86.3836 100.068 86.9899 99.4616 86.9899 98.7137V98.3841C86.9899 97.4542 87.7438 96.7003 88.6737 96.7003H89.3597C90.6685 96.7003 91.7295 95.6393 91.7295 94.3305V84.299C91.7295 83.1772 92.6389 82.2677 93.7607 82.2677H94.3487C95.1458 82.2677 95.792 82.9139 95.792 83.711V84.1386C95.792 84.6995 96.2467 85.1542 96.8076 85.1542C97.3685 85.1542 97.8232 85.609 97.8232 86.1699V94.3305C97.8232 95.6393 98.8842 96.7003 100.193 96.7003C101.502 96.7003 102.563 97.7613 102.563 99.0701V106.001C102.563 106.749 103.169 107.355 103.917 107.355C104.665 107.355 105.271 106.749 105.271 106.001V92.1567C105.271 91.7828 105.574 91.4796 105.948 91.4796C106.322 91.4796 106.625 91.1765 106.625 90.8026V88.0229C106.625 87.2751 107.232 86.6688 107.979 86.6688C108.727 86.6688 109.334 86.0625 109.334 85.3146V82.5885C109.334 81.6536 110.092 80.8958 111.026 80.8958C111.961 80.8958 112.719 81.6536 112.719 82.5885V91.2302C112.719 92.165 113.477 92.9229 114.412 92.9229C115.347 92.9229 116.104 92.165 116.104 91.2302V87.5953C116.104 86.2865 117.165 85.2255 118.474 85.2255C119.783 85.2255 120.844 86.2865 120.844 87.5953V102.295C120.844 103.23 121.602 103.988 122.537 103.988C123.472 103.988 124.229 103.23 124.229 102.295V91.4796" stroke="black" stroke-linecap="round" stroke-linejoin="round"/>
</svg>
