<svg width="132" height="131" viewBox="0 0 132 131" fill="none" xmlns="http://www.w3.org/2000/svg">
<rect x="131" width="130" height="130" transform="rotate(90 131 0)" fill="#364684"/>
<path d="M75.4795 116.458C75.4795 116.084 75.7826 115.781 76.1566 115.781H120.844C121.218 115.781 121.521 116.084 121.521 116.458C121.521 116.832 121.218 117.135 120.844 117.135H76.1566C75.7826 117.135 75.4795 116.832 75.4795 116.458Z" fill="#364684"/>
<path d="M57.0205 39.2708C57.0205 38.0512 58.0092 37.0625 59.2288 37.0625H121.521C122.74 37.0625 123.729 38.0512 123.729 39.2708V101.562C123.729 102.782 122.74 103.771 121.521 103.771H59.2288C58.0092 103.771 57.0205 102.782 57.0205 101.562V39.2708ZM63.2913 41.4792C61.5194 41.4792 60.083 42.9156 60.083 44.6875V78.5417C60.083 80.3136 61.5194 81.75 63.2913 81.75H117.458C119.23 81.75 120.666 80.3136 120.666 78.5417V44.6875C120.666 42.9156 119.23 41.4792 117.458 41.4792H63.2913ZM63.2913 88.875C61.5194 88.875 60.083 90.3114 60.083 92.0833C60.083 93.8552 61.5194 95.2917 63.2913 95.2917H117.458C119.23 95.2917 120.666 93.8552 120.666 92.0833C120.666 90.3114 119.23 88.875 117.458 88.875H63.2913ZM73.2705 116.458C73.2705 115.987 73.6529 115.604 74.1247 115.604H90.3747C90.8464 115.604 91.2288 115.987 91.2288 116.458C91.2288 116.93 90.8464 117.312 90.3747 117.312H74.1247C73.6529 117.312 73.2705 116.93 73.2705 116.458Z" fill="#364684" stroke="white"/>
<path d="M8.23044 95.9201C-1.21989 98.0501 -0.000481009 112.351 3.96255 119.654C7.92558 126.957 9.81564 128.965 11.2789 129.695C13.108 130.608 14.3274 129.087 15.2419 129.087C16.1565 129.087 18.2904 130 19.8147 130C21.3389 130 26.2165 128.174 28.3504 125.74C30.4844 123.306 35.6669 112.351 34.4475 105.353C33.2281 98.3543 28.0456 95.9201 25.302 95.0072C22.5583 94.0944 17.6808 93.7901 8.23044 95.9201Z" fill="#364684"/>
<path d="M11.2789 98.3543C12.234 98.1343 14.1346 97.8507 15.8516 97.9864C16.5094 98.0385 17.1403 98.152 17.6807 98.3543C19.6317 99.0846 21.1357 98.2529 21.6437 97.7457M3.96255 119.654C-0.00048097 112.351 -1.21989 98.0501 8.23044 95.9201C17.6808 93.7901 22.5583 94.0944 25.302 95.0072C28.0456 95.9201 33.2281 98.3543 34.4475 105.353C35.6669 112.351 30.4844 123.306 28.3504 125.74C26.2165 128.174 21.3389 130 19.8147 130C18.2904 130 16.1565 129.087 15.2419 129.087C14.3274 129.087 13.108 130.608 11.2789 129.695C9.81564 128.965 7.92558 126.957 3.96255 119.654Z" stroke="white" stroke-linecap="round" stroke-linejoin="round"/>
<path d="M11.2793 97.6776C12.2344 97.4576 14.135 97.1739 15.852 97.3097M21.6441 97.069C21.1361 97.5761 19.6321 98.4078 17.6811 97.6776C17.1407 97.4753 16.5098 97.3617 15.852 97.3097M15.852 97.3097L17.6811 88.0208" stroke="white" stroke-linecap="round" stroke-linejoin="round"/>
<path d="M57.1974 120.786C57.1974 121.85 58.3673 122.498 59.2692 121.934L66.1934 117.607C67.042 117.076 67.042 115.84 66.1934 115.31L59.2692 110.982C58.3673 110.419 57.1974 111.067 57.1974 112.131V120.786Z" fill="#364684"/>
<path d="M7.55469 50.104C7.55469 50.3802 7.77855 50.604 8.05469 50.604C8.33083 50.604 8.55469 50.3802 8.55469 50.104H7.55469ZM77.4024 50.104C77.4024 50.3802 77.6262 50.604 77.9024 50.604C78.1785 50.604 78.4024 50.3802 78.4024 50.104H77.4024ZM71.7077 30.0313L72.1981 29.9337L71.7077 30.0313ZM14.2493 30.0313L14.7397 30.1289L14.2493 30.0313ZM66.1934 115.31L65.9284 115.734L66.1934 115.31ZM59.2692 110.982L59.5342 110.558L59.2692 110.982ZM66.1934 117.607L66.4584 118.031L66.1934 117.607ZM59.2692 121.934L59.0042 121.51L59.2692 121.934ZM82.2495 32.6771C81.9733 32.6771 81.7495 32.901 81.7495 33.1771C81.7495 33.4533 81.9733 33.6771 82.2495 33.6771V32.6771ZM97.1453 33.6771C97.4214 33.6771 97.6453 33.4533 97.6453 33.1771C97.6453 32.901 97.4214 32.6771 97.1453 32.6771V33.6771ZM48.2182 84.6354C48.2182 84.3593 47.9943 84.1354 47.7182 84.1354C47.4421 84.1354 47.2182 84.3593 47.2182 84.6354H48.2182ZM47.2182 90.0521C47.2182 90.3283 47.4421 90.5521 47.7182 90.5521C47.9943 90.5521 48.2182 90.3283 48.2182 90.0521H47.2182ZM48.2182 92.7604C48.2182 92.4843 47.9943 92.2604 47.7182 92.2604C47.4421 92.2604 47.2182 92.4843 47.2182 92.7604H48.2182ZM47.2182 98.1771C47.2182 98.4533 47.4421 98.6771 47.7182 98.6771C47.9943 98.6771 48.2182 98.4533 48.2182 98.1771H47.2182ZM126.937 26.9063C127.213 26.9063 127.437 26.6824 127.437 26.4063C127.437 26.1301 127.213 25.9063 126.937 25.9063V26.9063ZM120.166 25.9063C119.89 25.9063 119.666 26.1301 119.666 26.4063C119.666 26.6824 119.89 26.9063 120.166 26.9063V25.9063ZM33.853 50.4577C34.0483 50.2625 34.0483 49.9459 33.853 49.7506C33.6577 49.5554 33.3412 49.5554 33.1459 49.7506L33.853 50.4577ZM25.698 57.1986C25.5027 57.3938 25.5027 57.7104 25.698 57.9057C25.8932 58.1009 26.2098 58.1009 26.4051 57.9057L25.698 57.1986ZM26.0515 61.1146C25.7754 61.1146 25.5515 61.3385 25.5515 61.6146C25.5515 61.8908 25.7754 62.1146 26.0515 62.1146V61.1146ZM33.4994 62.1146C33.7756 62.1146 33.9994 61.8908 33.9994 61.6146C33.9994 61.3385 33.7756 61.1146 33.4994 61.1146V62.1146ZM33.1459 73.4786C33.3412 73.6738 33.6577 73.6738 33.853 73.4786C34.0483 73.2833 34.0483 72.9667 33.853 72.7715L33.1459 73.4786ZM26.4051 65.3236C26.2098 65.1283 25.8932 65.1283 25.698 65.3236C25.5027 65.5188 25.5027 65.8354 25.698 66.0307L26.4051 65.3236ZM52.8113 49.7506C52.6161 49.5554 52.2995 49.5554 52.1042 49.7506C51.909 49.9459 51.909 50.2625 52.1042 50.4577L52.8113 49.7506ZM59.5521 57.9057C59.7474 58.1009 60.064 58.1009 60.2592 57.9057C60.4545 57.7104 60.4545 57.3938 60.2592 57.1986L59.5521 57.9057ZM59.9057 62.1146C60.1818 62.1146 60.4057 61.8908 60.4057 61.6146C60.4057 61.3385 60.1818 61.1146 59.9057 61.1146V62.1146ZM52.4578 61.1146C52.1816 61.1146 51.9578 61.3385 51.9578 61.6146C51.9578 61.8908 52.1816 62.1146 52.4578 62.1146V61.1146ZM52.1042 72.7715C51.909 72.9667 51.909 73.2833 52.1042 73.4786C52.2995 73.6738 52.6161 73.6738 52.8113 73.4786L52.1042 72.7715ZM60.2592 66.0307C60.4545 65.8354 60.4545 65.5188 60.2592 65.3236C60.064 65.1283 59.7474 65.1283 59.5521 65.3236L60.2592 66.0307ZM71.3425 28.4375L71.8264 28.3119L71.3425 28.4375ZM8.55469 50.104V35.6406H7.55469V50.104H8.55469ZM77.4024 35.6406V50.104H78.4024V35.6406H77.4024ZM8.55469 35.6406C8.55469 16.6289 23.9668 1.2168 42.9785 1.2168V0.216797C23.4145 0.216797 7.55469 16.0766 7.55469 35.6406H8.55469ZM42.273 7.56659H43.6841V6.56659H42.273V7.56659ZM14.7397 30.1289C17.3007 17.2632 28.655 7.56659 42.273 7.56659V6.56659C28.1688 6.56659 16.4112 16.6092 13.759 29.9337L14.7397 30.1289ZM77.9024 35.1406C75.0801 35.1406 72.7721 32.8172 72.1981 29.9337L71.2173 30.1289C71.8605 33.3598 74.4901 36.1406 77.9024 36.1406V35.1406ZM8.05469 36.1406C11.4669 36.1406 14.0966 33.3598 14.7397 30.1289L13.759 29.9337C13.185 32.8172 10.8769 35.1406 8.05469 35.1406V36.1406ZM50.2494 31.1459C50.2494 29.9262 51.2381 28.9375 52.4577 28.9375V27.9375C50.6858 27.9375 49.2494 29.374 49.2494 31.1459H50.2494ZM128.291 28.9375C129.511 28.9375 130.499 29.9262 130.499 31.1459H131.499C131.499 29.374 130.063 27.9375 128.291 27.9375V28.9375ZM130.499 31.1459V127.292H131.499V31.1459H130.499ZM130.499 127.292C130.499 128.511 129.511 129.5 128.291 129.5V130.5C130.063 130.5 131.499 129.064 131.499 127.292H130.499ZM128.291 129.5H52.4577V130.5H128.291V129.5ZM52.4577 129.5C51.2381 129.5 50.2494 128.511 50.2494 127.292H49.2494C49.2494 129.064 50.6858 130.5 52.4577 130.5V129.5ZM50.2494 127.292V31.1459H49.2494V127.292H50.2494ZM68.7305 48.5869H74.3748V47.5869H68.7305V48.5869ZM74.3748 74.3971H68.7305V75.3971H74.3748V74.3971ZM63.5862 69.2528V53.7311H62.5862V69.2528H63.5862ZM68.7305 74.3971C65.8894 74.3971 63.5862 72.0939 63.5862 69.2528H62.5862C62.5862 72.6462 65.3371 75.3971 68.7305 75.3971V74.3971ZM68.7305 47.5869C65.3371 47.5869 62.5862 50.3377 62.5862 53.7311H63.5862C63.5862 50.89 65.8894 48.5869 68.7305 48.5869V47.5869ZM17.2267 47.5869H11.5824V48.5869H17.2267V47.5869ZM11.5824 75.3971H17.2267V74.3971H11.5824V75.3971ZM23.3709 69.2528V53.7311H22.3709V69.2528H23.3709ZM17.2267 75.3971C20.6201 75.3971 23.3709 72.6462 23.3709 69.2528H22.3709C22.3709 72.0939 20.0678 74.3971 17.2267 74.3971V75.3971ZM17.2267 48.5869C20.0678 48.5869 22.3709 50.89 22.3709 53.7311H23.3709C23.3709 50.3377 20.6201 47.5869 17.2267 47.5869V48.5869ZM66.4584 114.886L59.5342 110.558L59.0042 111.406L65.9284 115.734L66.4584 114.886ZM65.9284 117.183L59.0042 121.51L59.5342 122.358L66.4584 118.031L65.9284 117.183ZM65.9284 115.734C66.4636 116.069 66.4636 116.848 65.9284 117.183L66.4584 118.031C67.6203 117.304 67.6203 115.612 66.4584 114.886L65.9284 115.734ZM57.6974 112.131C57.6974 111.46 58.4353 111.051 59.0042 111.406L59.5342 110.558C58.2993 109.787 56.6974 110.674 56.6974 112.131H57.6974ZM56.6974 120.786C56.6974 122.242 58.2993 123.13 59.5342 122.358L59.0042 121.51C58.4353 121.866 57.6974 121.457 57.6974 120.786H56.6974ZM57.6974 120.786V112.131H56.6974V120.786H57.6974ZM82.2495 33.6771H97.1453V32.6771H82.2495V33.6771ZM47.2182 84.6354V90.0521H48.2182V84.6354H47.2182ZM47.2182 92.7604V98.1771H48.2182V92.7604H47.2182ZM126.937 25.9063H120.166V26.9063H126.937V25.9063ZM33.1459 49.7506L25.698 57.1986L26.4051 57.9057L33.853 50.4577L33.1459 49.7506ZM26.0515 62.1146H33.4994V61.1146H26.0515V62.1146ZM33.853 72.7715L26.4051 65.3236L25.698 66.0307L33.1459 73.4786L33.853 72.7715ZM52.1042 50.4577L59.5521 57.9057L60.2592 57.1986L52.8113 49.7506L52.1042 50.4577ZM59.9057 61.1146H52.4578V62.1146H59.9057V61.1146ZM52.8113 73.4786L60.2592 66.0307L59.5521 65.3236L52.1042 72.7715L52.8113 73.4786ZM52.4577 28.9375H71.3425V27.9375H52.4577V28.9375ZM72.1981 29.9337C72.0894 29.3874 71.9653 28.8466 71.8264 28.3119L70.8586 28.5632C70.9926 29.0795 71.1124 29.6015 71.2173 30.1289L72.1981 29.9337ZM71.8264 28.3119C68.5779 15.8029 57.2102 6.56659 43.6841 6.56659V7.56659C56.7437 7.56659 67.7217 16.4843 70.8586 28.5632L71.8264 28.3119ZM77.1587 28.9375H128.291V27.9375H77.1587V28.9375ZM42.9785 1.2168C59.5558 1.2168 73.3972 12.935 76.6694 28.5401L77.6481 28.3349C74.2808 12.2761 60.0386 0.216797 42.9785 0.216797V1.2168ZM76.6694 28.5401C77.1497 30.831 77.4024 33.2061 77.4024 35.6406H78.4024C78.4024 33.1367 78.1425 30.6929 77.6481 28.3349L76.6694 28.5401Z" fill="white"/>
<path d="M10.8774 46.4703C12.1599 46.4703 13.1996 47.5099 13.1996 48.7924V74.1915C13.1996 75.474 12.1599 76.5137 10.8774 76.5137H3.82213C2.53965 76.5137 1.5 75.474 1.5 74.1915V48.7924C1.5 47.5099 2.53965 46.4703 3.82213 46.4703H10.8774ZM72.7587 48.7924C72.7587 47.5099 73.7983 46.4703 75.0808 46.4703H82.1361C83.4186 46.4703 84.4583 47.5099 84.4583 48.7924V74.1915C84.4583 75.474 83.4186 76.5137 82.1361 76.5137H75.0808C73.7983 76.5137 72.7587 75.474 72.7587 74.1915V48.7924Z" fill="#364684" stroke="white"/>
</svg>
