<svg width="130" height="130" viewBox="0 0 130 130" fill="none" xmlns="http://www.w3.org/2000/svg">
<path fill-rule="evenodd" clip-rule="evenodd" d="M44.6878 44.6875C43.1921 44.6875 41.9795 45.9001 41.9795 47.3958V88.0208C41.9795 89.5166 43.1921 90.7292 44.6878 90.7292H85.3128C86.8086 90.7292 88.0212 89.5166 88.0212 88.0208V47.3958C88.0212 45.9001 86.8086 44.6875 85.3128 44.6875H44.6878ZM50.1045 50.1042C48.6087 50.1042 47.3962 51.3167 47.3962 52.8125V82.6042C47.3962 84.0999 48.6087 85.3125 50.1045 85.3125H79.8962C81.3919 85.3125 82.6045 84.0999 82.6045 82.6042V52.8125C82.6045 51.3167 81.3919 50.1042 79.8962 50.1042H50.1045Z" fill="black"/>
<path d="M44.6875 90.2292C44.4114 90.2292 44.1875 90.453 44.1875 90.7292C44.1875 91.0053 44.4114 91.2292 44.6875 91.2292V90.2292ZM85.9896 91.2292C86.2657 91.2292 86.4896 91.0053 86.4896 90.7292C86.4896 90.453 86.2657 90.2292 85.9896 90.2292V91.2292ZM44.6875 44.1875C44.4114 44.1875 44.1875 44.4114 44.1875 44.6875C44.1875 44.9636 44.4114 45.1875 44.6875 45.1875V44.1875ZM85.9896 45.1875C86.2657 45.1875 86.4896 44.9636 86.4896 44.6875C86.4896 44.4114 86.2657 44.1875 85.9896 44.1875V45.1875ZM56.0208 60.9375C56.0208 59.7179 57.0095 58.7292 58.2292 58.7292V57.7292C56.4573 57.7292 55.0208 59.1656 55.0208 60.9375H56.0208ZM58.2292 58.7292H71.7708V57.7292H58.2292V58.7292ZM71.7708 58.7292C72.9905 58.7292 73.9792 59.7179 73.9792 60.9375H74.9792C74.9792 59.1656 73.5427 57.7292 71.7708 57.7292V58.7292ZM73.9792 60.9375V74.4792H74.9792V60.9375H73.9792ZM73.9792 74.4792C73.9792 75.6988 72.9905 76.6875 71.7708 76.6875V77.6875C73.5427 77.6875 74.9792 76.2511 74.9792 74.4792H73.9792ZM71.7708 76.6875H58.2292V77.6875H71.7708V76.6875ZM58.2292 76.6875C57.0095 76.6875 56.0208 75.6988 56.0208 74.4792H55.0208C55.0208 76.2511 56.4573 77.6875 58.2292 77.6875V76.6875ZM56.0208 74.4792V60.9375H55.0208V74.4792H56.0208ZM56.6979 44.6875V36.5625H55.6979V44.6875H56.6979ZM58.9062 34.3542H60.2604V33.3542H58.9062V34.3542ZM63.4688 31.1458V12.1875H62.4688V31.1458H63.4688ZM60.2604 8.97917H27.7604V9.97917H60.2604V8.97917ZM74.3021 44.6875V42.6562H73.3021V44.6875H74.3021ZM76.5104 40.4479H83.2812V39.4479H76.5104V40.4479ZM86.4896 37.2396V20.9896H85.4896V37.2396H86.4896ZM88.6979 18.7812H103.594V17.7812H88.6979V18.7812ZM55.6979 90.7292V110.365H56.6979V90.7292H55.6979ZM58.9062 113.573H64.3229V112.573H58.9062V113.573ZM66.5312 115.781V121.875H67.5312V115.781H66.5312ZM64.3229 124.083H30.4688V125.083H64.3229V124.083ZM28.2604 121.875V113.073H27.2604V121.875H28.2604ZM25.0521 109.865H11.5104V110.865H25.0521V109.865ZM73.3021 90.7292V98.1771H74.3021V90.7292H73.3021ZM76.5104 101.385H85.9896V100.385H76.5104V101.385ZM88.1979 103.594V110.365H89.1979V103.594H88.1979ZM91.4062 113.573H107.656V112.573H91.4062V113.573ZM88.0208 77.0104H94.1146V76.0104H88.0208V77.0104ZM96.3229 79.2187V84.6354H97.3229V79.2187H96.3229ZM99.5312 87.8437H115.781V86.8437H99.5312V87.8437ZM117.99 90.0521V124.583H118.99V90.0521H117.99ZM88.0208 59.4062H103.594V58.4062H88.0208V59.4062ZM106.802 56.1979V45.3646H105.802V56.1979H106.802ZM109.01 43.1562H125.938V42.1562H109.01V43.1562ZM41.9792 58.4062H31.8229V59.4062H41.9792V58.4062ZM29.6146 56.1979V53.4896H28.6146V56.1979H29.6146ZM26.4062 50.2812H11.5104V51.2812H26.4062V50.2812ZM9.30208 48.0729V38.5937H8.30208V48.0729H9.30208ZM41.9792 76.0104H25.0521V77.0104H41.9792V76.0104ZM21.8438 79.2187V87.3437H22.8438V79.2187H21.8438ZM19.6354 89.5521H6.77083V90.5521H19.6354V89.5521ZM4.5625 87.3437V74.4792H3.5625V87.3437H4.5625ZM106.802 15.5729V4.0625H105.802V15.5729H106.802ZM44.6875 91.2292H56.1979V90.2292H44.6875V91.2292ZM56.1979 91.2292H73.8021V90.2292H56.1979V91.2292ZM73.8021 91.2292H85.9896V90.2292H73.8021V91.2292ZM44.6875 45.1875H56.1979V44.1875H44.6875V45.1875ZM56.1979 45.1875H73.8021V44.1875H56.1979V45.1875ZM73.8021 45.1875H85.9896V44.1875H73.8021V45.1875ZM6.77083 89.5521C5.5512 89.5521 4.5625 88.5634 4.5625 87.3437H3.5625C3.5625 89.1157 4.99892 90.5521 6.77083 90.5521V89.5521ZM21.8438 87.3437C21.8438 88.5634 20.855 89.5521 19.6354 89.5521V90.5521C21.4073 90.5521 22.8438 89.1157 22.8438 87.3437H21.8438ZM25.0521 76.0104C23.2802 76.0104 21.8438 77.4468 21.8438 79.2187H22.8438C22.8438 77.9991 23.8325 77.0104 25.0521 77.0104V76.0104ZM29.6146 53.4896C29.6146 51.7177 28.1782 50.2812 26.4062 50.2812V51.2812C27.6259 51.2812 28.6146 52.27 28.6146 53.4896H29.6146ZM103.594 59.4062C105.366 59.4062 106.802 57.9698 106.802 56.1979H105.802C105.802 57.4175 104.813 58.4062 103.594 58.4062V59.4062ZM94.1146 77.0104C95.3342 77.0104 96.3229 77.9991 96.3229 79.2187H97.3229C97.3229 77.4468 95.8865 76.0104 94.1146 76.0104V77.0104ZM88.1979 110.365C88.1979 112.136 89.6343 113.573 91.4062 113.573V112.573C90.1866 112.573 89.1979 111.584 89.1979 110.365H88.1979ZM85.9896 101.385C87.2092 101.385 88.1979 102.374 88.1979 103.594H89.1979C89.1979 101.822 87.7615 100.385 85.9896 100.385V101.385ZM73.3021 98.1771C73.3021 99.949 74.7385 101.385 76.5104 101.385V100.385C75.2908 100.385 74.3021 99.3967 74.3021 98.1771H73.3021ZM28.2604 113.073C28.2604 111.301 26.824 109.865 25.0521 109.865V110.865C26.2717 110.865 27.2604 111.853 27.2604 113.073H28.2604ZM11.5104 50.2812C10.2908 50.2812 9.30208 49.2925 9.30208 48.0729H8.30208C8.30208 49.8448 9.7385 51.2812 11.5104 51.2812V50.2812ZM55.6979 110.365C55.6979 112.136 57.1343 113.573 58.9062 113.573V112.573C57.6866 112.573 56.6979 111.584 56.6979 110.365H55.6979ZM31.8229 58.4062C30.6033 58.4062 29.6146 57.4175 29.6146 56.1979H28.6146C28.6146 57.9698 30.051 59.4062 31.8229 59.4062V58.4062ZM103.594 18.7812C105.366 18.7812 106.802 17.3448 106.802 15.5729H105.802C105.802 16.7925 104.813 17.7812 103.594 17.7812V18.7812ZM86.4896 20.9896C86.4896 19.77 87.4783 18.7812 88.6979 18.7812V17.7812C86.926 17.7812 85.4896 19.2177 85.4896 20.9896H86.4896ZM30.4688 124.083C29.2491 124.083 28.2604 123.095 28.2604 121.875H27.2604C27.2604 123.647 28.6968 125.083 30.4688 125.083V124.083ZM63.4688 12.1875C63.4688 10.4156 62.0323 8.97917 60.2604 8.97917V9.97917C61.48 9.97917 62.4688 10.9679 62.4688 12.1875H63.4688ZM83.2812 40.4479C85.0532 40.4479 86.4896 39.0115 86.4896 37.2396H85.4896C85.4896 38.4592 84.5009 39.4479 83.2812 39.4479V40.4479ZM66.5312 121.875C66.5312 123.095 65.5425 124.083 64.3229 124.083V125.083C66.0948 125.083 67.5312 123.647 67.5312 121.875H66.5312ZM115.781 87.8437C117.001 87.8437 117.99 88.8324 117.99 90.0521H118.99C118.99 88.2802 117.553 86.8437 115.781 86.8437V87.8437ZM60.2604 34.3542C62.0323 34.3542 63.4688 32.9177 63.4688 31.1458H62.4688C62.4688 32.3655 61.48 33.3542 60.2604 33.3542V34.3542ZM106.802 45.3646C106.802 44.145 107.791 43.1562 109.01 43.1562V42.1562C107.239 42.1562 105.802 43.5927 105.802 45.3646H106.802ZM74.3021 42.6562C74.3021 41.4366 75.2908 40.4479 76.5104 40.4479V39.4479C74.7385 39.4479 73.3021 40.8843 73.3021 42.6562H74.3021ZM64.3229 113.573C65.5425 113.573 66.5312 114.562 66.5312 115.781H67.5312C67.5312 114.009 66.0948 112.573 64.3229 112.573V113.573ZM96.3229 84.6354C96.3229 86.4073 97.7593 87.8437 99.5312 87.8437V86.8437C98.3116 86.8437 97.3229 85.855 97.3229 84.6354H96.3229ZM56.6979 36.5625C56.6979 35.3429 57.6866 34.3542 58.9062 34.3542V33.3542C57.1343 33.3542 55.6979 34.7906 55.6979 36.5625H56.6979Z" fill="black"/>
<path d="M85.9893 109.01V104.594C85.9893 104.041 85.5415 103.594 84.9893 103.594H80.5726M25.0518 83.2812V80.2187C25.0518 79.6665 25.4995 79.2187 26.0518 79.2187H32.4997M60.2601 19.6354V13.1875C60.2601 12.6352 59.8124 12.1875 59.2601 12.1875H52.8122M96.8226 56.1979H102.593C103.146 56.1979 103.593 55.7502 103.593 55.1979V48.0729" stroke="black" stroke-linecap="round" stroke-linejoin="round"/>
<path d="M29.1146 9.47917C29.1146 11.7228 27.2957 13.5417 25.0521 13.5417C22.8084 13.5417 20.9896 11.7228 20.9896 9.47917C20.9896 7.23551 22.8084 5.41667 25.0521 5.41667C27.2957 5.41667 29.1146 7.23551 29.1146 9.47917Z" fill="black"/>
<path d="M12.8646 35.2083C12.8646 37.452 11.0457 39.2708 8.80208 39.2708C6.55843 39.2708 4.73958 37.452 4.73958 35.2083C4.73958 32.9647 6.55843 31.1458 8.80208 31.1458C11.0457 31.1458 12.8646 32.9647 12.8646 35.2083Z" fill="black"/>
<path d="M110.365 4.0625C110.365 6.30616 108.546 8.125 106.302 8.125C104.058 8.125 102.24 6.30616 102.24 4.0625C102.24 1.81884 104.058 0 106.302 0C108.546 0 110.365 1.81884 110.365 4.0625Z" fill="black"/>
<path d="M130 41.9792C130 44.2228 128.181 46.0417 125.937 46.0417C123.694 46.0417 121.875 44.2228 121.875 41.9792C121.875 39.7355 123.694 37.9167 125.937 37.9167C128.181 37.9167 130 39.7355 130 41.9792Z" fill="black"/>
<path d="M122.552 125.937C122.552 128.181 120.733 130 118.49 130C116.246 130 114.427 128.181 114.427 125.937C114.427 123.694 116.246 121.875 118.49 121.875C120.733 121.875 122.552 123.694 122.552 125.937Z" fill="black"/>
<path d="M109.687 113.75C109.687 115.994 107.869 117.812 105.625 117.812C103.381 117.812 101.562 115.994 101.562 113.75C101.562 111.506 103.381 109.688 105.625 109.688C107.869 109.688 109.687 111.506 109.687 113.75Z" fill="black"/>
<path d="M13.5417 110.365C13.5417 112.608 11.7228 114.427 9.47917 114.427C7.23551 114.427 5.41667 112.608 5.41667 110.365C5.41667 108.121 7.23551 106.302 9.47917 106.302C11.7228 106.302 13.5417 108.121 13.5417 110.365Z" fill="black"/>
<path d="M8.125 74.4792C8.125 76.7228 6.30616 78.5417 4.0625 78.5417C1.81884 78.5417 0 76.7228 0 74.4792C0 72.2355 1.81884 70.4167 4.0625 70.4167C6.30616 70.4167 8.125 72.2355 8.125 74.4792Z" fill="black"/>
</svg>
