<svg width="130" height="131" viewBox="0 0 130 131" fill="none" xmlns="http://www.w3.org/2000/svg">
<path d="M52.1357 83.7083H55.1566C55.9045 83.7083 56.5107 83.102 56.5107 82.3542V79.5417M52.1357 83.7083V109.542C52.1357 110.922 53.255 112.042 54.6357 112.042H74.0107C75.3915 112.042 76.5107 110.922 76.5107 109.542V82.0417C76.5107 80.6609 75.3915 79.5417 74.0107 79.5417H56.5107M52.1357 83.7083L56.5107 79.5417" stroke="white"/>
<path d="M16.2497 56.5208C15.5018 56.5208 14.8955 57.1271 14.8955 57.875V95.1146H18.958V71.4167C18.958 69.9209 20.1706 68.7083 21.6663 68.7083H108.333C109.829 68.7083 111.041 69.9209 111.041 71.4167V112.042C111.041 113.537 109.829 114.75 108.333 114.75H37.9163V125.583H115.104V57.875C115.104 57.1271 114.498 56.5208 113.75 56.5208H16.2497Z" fill="#364684"/>
<path d="M74.4937 91.1904L76.3465 100.244C76.5017 101.003 77.3545 101.387 78.0251 100.999C78.5677 100.686 79.2615 100.872 79.5747 101.415L81.7158 105.123C82.0898 105.771 82.918 105.993 83.5657 105.619C84.2134 105.245 84.4353 104.417 84.0613 103.769L81.9202 100.06C81.6069 99.5178 81.7928 98.824 82.3354 98.5108C83.006 98.1236 83.1002 97.1933 82.5209 96.6796L75.6063 90.5481C75.1194 90.1163 74.3633 90.5529 74.4937 91.1904Z" fill="#364684"/>
<path d="M64.6611 34.8542H111.211C114.857 34.8542 117.812 31.8985 117.812 28.2526C117.812 24.6067 114.857 21.651 111.211 21.651H106.979L108.179 19.6323C111.219 14.5196 108.263 7.93976 102.422 6.81646C99.0294 6.16397 95.576 7.60942 93.6595 10.4842L91.4059 13.8646V11.8333C91.4059 5.85025 86.5557 1 80.5726 1C74.5895 1 69.7393 5.85025 69.7393 11.8333V16.5729H64.6611C59.6129 16.5729 55.5205 20.6653 55.5205 25.7135C55.5205 30.7618 59.6129 34.8542 64.6611 34.8542Z" fill="#364684"/>
<path d="M115.104 125.583V126.083C115.38 126.083 115.604 125.859 115.604 125.583H115.104ZM76.3465 100.244L76.8363 100.144L76.3465 100.244ZM74.4937 91.1904L74.9836 91.0902V91.0902L74.4937 91.1904ZM75.6063 90.5481L75.2746 90.9222L75.6063 90.5481ZM82.5209 96.6796L82.1891 97.0537L82.5209 96.6796ZM82.3354 98.5108L82.0854 98.0778L82.3354 98.5108ZM81.9202 100.06L81.4872 100.31L81.9202 100.06ZM84.0613 103.769L84.4943 103.519L84.0613 103.769ZM81.7158 105.123L82.1488 104.873L81.7158 105.123ZM79.5747 101.415L79.1417 101.665L79.5747 101.415ZM78.0251 100.999L78.2751 101.432L78.0251 100.999ZM14.8955 95.1146H14.3955V95.6146H14.8955V95.1146ZM18.958 95.1146V95.6146H19.458V95.1146H18.958ZM37.9163 114.75V114.25H37.4163V114.75H37.9163ZM37.9163 125.583H37.4163V126.083H37.9163V125.583ZM106.979 21.651L106.549 21.3955C106.457 21.55 106.455 21.742 106.544 21.8983C106.633 22.0545 106.799 22.151 106.979 22.151V21.651ZM108.179 19.6323L107.749 19.3767L108.179 19.6323ZM102.422 6.81646L102.517 6.32545L102.422 6.81646ZM93.6595 10.4842L94.0755 10.7616L93.6595 10.4842ZM91.4059 13.8646H90.9059C90.9059 14.0849 91.0501 14.2793 91.261 14.3431C91.4719 14.407 91.6997 14.3253 91.8219 14.1419L91.4059 13.8646ZM69.7393 16.5729V17.0729C70.0154 17.0729 70.2393 16.8491 70.2393 16.5729H69.7393ZM15.3955 57.875C15.3955 57.4033 15.7779 57.0208 16.2497 57.0208V56.0208C15.2256 56.0208 14.3955 56.851 14.3955 57.875H15.3955ZM114.604 57.875V125.583H115.604V57.875H114.604ZM113.75 57.0208C114.221 57.0208 114.604 57.4033 114.604 57.875H115.604C115.604 56.851 114.774 56.0208 113.75 56.0208V57.0208ZM16.2497 57.0208H113.75V56.0208H16.2497V57.0208ZM19.458 71.4167C19.458 70.197 20.4467 69.2083 21.6663 69.2083V68.2083C19.8944 68.2083 18.458 69.6447 18.458 71.4167H19.458ZM110.541 112.042C110.541 113.261 109.553 114.25 108.333 114.25V115.25C110.105 115.25 111.541 113.814 111.541 112.042H110.541ZM110.541 71.4167V112.042H111.541V71.4167H110.541ZM108.333 69.2083C109.553 69.2083 110.541 70.197 110.541 71.4167H111.541C111.541 69.6447 110.105 68.2083 108.333 68.2083V69.2083ZM21.6663 69.2083H108.333V68.2083H21.6663V69.2083ZM76.8363 100.144L74.9836 91.0902L74.0039 91.2906L75.8566 100.345L76.8363 100.144ZM74.9836 91.0902C74.9495 90.9234 75.1472 90.8093 75.2746 90.9222L75.938 90.174C75.0917 89.4234 73.7771 90.1824 74.0039 91.2906L74.9836 91.0902ZM75.2746 90.9222L82.1891 97.0537L82.8526 96.3055L75.938 90.174L75.2746 90.9222ZM82.1891 97.0537C82.5131 97.341 82.4604 97.8613 82.0854 98.0778L82.5854 98.9438C83.5516 98.386 83.6873 97.0456 82.8526 96.3055L82.1891 97.0537ZM82.0854 98.0778C81.3037 98.5291 81.0359 99.5287 81.4872 100.31L82.3532 99.8104C82.178 99.507 82.282 99.119 82.5854 98.9438L82.0854 98.0778ZM81.4872 100.31L83.6283 104.019L84.4943 103.519L82.3532 99.8104L81.4872 100.31ZM83.6283 104.019C83.8642 104.427 83.7242 104.95 83.3157 105.186L83.8157 106.052C84.7025 105.54 85.0063 104.406 84.4943 103.519L83.6283 104.019ZM83.3157 105.186C82.9071 105.422 82.3847 105.282 82.1488 104.873L81.2828 105.373C81.7948 106.26 82.9288 106.564 83.8157 106.052L83.3157 105.186ZM82.1488 104.873L80.0077 101.165L79.1417 101.665L81.2828 105.373L82.1488 104.873ZM80.0077 101.165C79.5564 100.383 78.5568 100.115 77.7751 100.566L78.2751 101.432C78.5785 101.257 78.9665 101.361 79.1417 101.665L80.0077 101.165ZM77.7751 100.566C77.4001 100.783 76.9231 100.568 76.8363 100.144L75.8566 100.345C76.0803 101.438 77.309 101.99 78.2751 101.432L77.7751 100.566ZM15.3955 95.1146V57.875H14.3955V95.1146H15.3955ZM19.458 95.1146V71.4167H18.458V95.1146H19.458ZM14.8955 95.6146H18.958V94.6146H14.8955V95.6146ZM108.333 114.25H37.9163V115.25H108.333V114.25ZM115.104 125.083H37.9163V126.083H115.104V125.083ZM37.4163 114.75V125.583H38.4163V114.75H37.4163ZM64.6611 35.3542H111.211V34.3542H64.6611V35.3542ZM111.211 35.3542C115.133 35.3542 118.312 32.1747 118.312 28.2526H117.312C117.312 31.6224 114.58 34.3542 111.211 34.3542V35.3542ZM118.312 28.2526C118.312 24.3305 115.133 21.151 111.211 21.151V22.151C114.58 22.151 117.312 24.8828 117.312 28.2526H118.312ZM111.211 21.151H106.979V22.151H111.211V21.151ZM107.409 21.9066L108.609 19.8878L107.749 19.3767L106.549 21.3955L107.409 21.9066ZM108.609 19.8878C111.826 14.4773 108.698 7.51419 102.517 6.32545L102.328 7.30746C107.829 8.36533 110.612 14.5619 107.749 19.3767L108.609 19.8878ZM102.517 6.32545C98.9262 5.63496 95.2716 7.16461 93.2435 10.2069L94.0755 10.7616C95.8804 8.05423 99.1326 6.69298 102.328 7.30746L102.517 6.32545ZM93.2435 10.2069L90.9899 13.5872L91.8219 14.1419L94.0755 10.7616L93.2435 10.2069ZM91.9059 13.8646V11.8333H90.9059V13.8646H91.9059ZM91.9059 11.8333C91.9059 5.57411 86.8318 0.5 80.5726 0.5V1.5C86.2795 1.5 90.9059 6.12639 90.9059 11.8333H91.9059ZM80.5726 0.5C74.3134 0.5 69.2393 5.57411 69.2393 11.8333H70.2393C70.2393 6.12639 74.8656 1.5 80.5726 1.5V0.5ZM69.2393 11.8333V16.5729H70.2393V11.8333H69.2393ZM69.7393 16.0729H64.6611V17.0729H69.7393V16.0729ZM64.6611 16.0729C59.3368 16.0729 55.0205 20.3892 55.0205 25.7135H56.0205C56.0205 20.9415 59.889 17.0729 64.6611 17.0729V16.0729ZM55.0205 25.7135C55.0205 31.0379 59.3368 35.3542 64.6611 35.3542V34.3542C59.889 34.3542 56.0205 30.4856 56.0205 25.7135H55.0205Z" fill="white"/>
<path d="M9.47955 125.641H120.381H128.753C129.029 125.641 129.253 125.865 129.253 126.141V128.323C129.253 129.428 128.358 130.323 127.253 130.323H2.60742C1.50285 130.323 0.607422 129.428 0.607422 128.323V126.141C0.607422 125.865 0.83128 125.641 1.10742 125.641H9.47955Z" fill="white" stroke="white"/>
<path d="M24.6941 121.118C24.9702 121.118 25.1941 120.894 25.1941 120.618C25.1941 120.342 24.9702 120.118 24.6941 120.118V121.118ZM22.9416 126.083C23.2178 126.083 23.4416 125.859 23.4416 125.583C23.4416 125.307 23.2178 125.083 22.9416 125.083V126.083ZM24.6941 116.153C24.9702 116.153 25.1941 115.929 25.1941 115.653C25.1941 115.377 24.9702 115.153 24.6941 115.153V116.153ZM24.6941 111.187C24.9702 111.187 25.1941 110.964 25.1941 110.687C25.1941 110.411 24.9702 110.187 24.6941 110.187V111.187ZM24.6941 105.722V106.222C24.9702 106.222 25.1941 105.998 25.1941 105.722H24.6941ZM52.9873 76.3462C52.9873 76.6224 53.2111 76.8462 53.4873 76.8462C53.7634 76.8462 53.9873 76.6224 53.9873 76.3462H52.9873ZM53.8408 40.8397C53.6456 40.6444 53.329 40.6444 53.1337 40.8397L49.9517 44.0216C49.7565 44.2169 49.7565 44.5335 49.9517 44.7288C50.147 44.924 50.4636 44.924 50.6588 44.7288L53.4873 41.9003L56.3157 44.7288C56.511 44.924 56.8275 44.924 57.0228 44.7288C57.2181 44.5335 57.2181 44.2169 57.0228 44.0216L53.8408 40.8397ZM74.6274 76.3462C74.6274 76.6224 74.8513 76.8462 75.1274 76.8462C75.4035 76.8462 75.6274 76.6224 75.6274 76.3462H74.6274ZM75.481 40.8397C75.2857 40.6444 74.9691 40.6444 74.7738 40.8397L71.5919 44.0216C71.3966 44.2169 71.3966 44.5335 71.5919 44.7288C71.7871 44.924 72.1037 44.924 72.299 44.7288L75.1274 41.9003L77.9558 44.7288C78.1511 44.924 78.4677 44.924 78.6629 44.7288C78.8582 44.5335 78.8582 44.2169 78.6629 44.0216L75.481 40.8397ZM8.97955 95.7917C8.97955 96.0678 9.20341 96.2917 9.47955 96.2917C9.75569 96.2917 9.97955 96.0678 9.97955 95.7917H8.97955ZM12.1879 52.2812H117.673V51.2812H12.1879V52.2812ZM119.881 54.4896V125.641H120.881V54.4896H119.881ZM120.381 125.141H9.47955V126.141H120.381V125.141ZM120.381 126.141H128.576V125.141H120.381V126.141ZM128.753 126.318V127.615H129.753V126.318H128.753ZM126.545 129.823H3.31576V130.823H126.545V129.823ZM1.10742 127.615V126.318H0.107422V127.615H1.10742ZM1.28451 126.141H9.47955V125.141H1.28451V126.141ZM1.10742 126.318C1.10742 126.22 1.1867 126.141 1.28451 126.141V125.141C0.63442 125.141 0.107422 125.668 0.107422 126.318H1.10742ZM128.576 126.141C128.674 126.141 128.753 126.22 128.753 126.318H129.753C129.753 125.668 129.226 125.141 128.576 125.141V126.141ZM128.753 127.615C128.753 128.834 127.765 129.823 126.545 129.823V130.823C128.317 130.823 129.753 129.386 129.753 127.615H128.753ZM117.673 52.2812C118.892 52.2812 119.881 53.2699 119.881 54.4896H120.881C120.881 52.7177 119.445 51.2812 117.673 51.2812V52.2812ZM3.31576 129.823C2.09613 129.823 1.10742 128.834 1.10742 127.615H0.107422C0.107422 129.386 1.54385 130.823 3.31576 130.823V129.823ZM12.1879 51.2812C10.416 51.2812 8.97955 52.7177 8.97955 54.4896H9.97955C9.97955 53.27 10.9683 52.2812 12.1879 52.2812V51.2812ZM7.16956 125.083C6.47785 125.083 5.91711 124.523 5.91711 123.831H4.91711C4.91711 125.075 5.92556 126.083 7.16956 126.083V125.083ZM5.91711 123.831V120.618H4.91711V123.831H5.91711ZM5.41711 121.118H24.6941V120.118H5.41711V121.118ZM22.9416 125.083H7.16956V126.083H22.9416V125.083ZM5.91711 120.618V115.653H4.91711V120.618H5.91711ZM5.41711 116.153H24.6941V115.153H5.41711V116.153ZM5.91711 115.653V110.687H4.91711V115.653H5.91711ZM5.41711 111.187H24.6941V110.187H5.41711V111.187ZM5.91711 110.687V105.722H4.91711V110.687H5.91711ZM5.41711 106.222H24.6941V105.222H5.41711V106.222ZM5.91711 105.722V100.757H4.91711V105.722H5.91711ZM5.41711 101.257H24.6941V100.257H5.41711V101.257ZM24.1941 100.757V105.722H25.1941V100.757H24.1941ZM5.91711 100.757V97.5441H4.91711V100.757H5.91711ZM5.91711 97.5441C5.91711 96.8524 6.47785 96.2917 7.16956 96.2917V95.2917C5.92557 95.2917 4.91711 96.3001 4.91711 97.5441H5.91711ZM7.16956 96.2917H22.9416V95.2917H7.16956V96.2917ZM22.9416 96.2917C23.6333 96.2917 24.1941 96.8524 24.1941 97.5441H25.1941C25.1941 96.3001 24.1856 95.2917 22.9416 95.2917V96.2917ZM24.1941 97.5441V100.757H25.1941V97.5441H24.1941ZM20.7112 125.083C20.0195 125.083 19.4588 124.523 19.4588 123.831H18.4588C18.4588 125.075 19.4672 126.083 20.7112 126.083V125.083ZM19.4588 123.831V120.618H18.4588V123.831H19.4588ZM18.9588 121.118H38.2357V120.118H18.9588V121.118ZM37.7357 120.618V123.831H38.7357V120.618H37.7357ZM37.7357 123.831C37.7357 124.523 37.175 125.083 36.4833 125.083V126.083C37.7273 126.083 38.7357 125.075 38.7357 123.831H37.7357ZM36.4833 125.083H20.7112V126.083H36.4833V125.083ZM19.4588 120.618V115.653H18.4588V120.618H19.4588ZM18.9588 116.153H38.2357V115.153H18.9588V116.153ZM37.7357 115.653V120.618H38.7357V115.653H37.7357ZM19.4588 115.653V110.687H18.4588V115.653H19.4588ZM18.9588 111.187H38.2357V110.187H18.9588V111.187ZM37.7357 110.687V115.653H38.7357V110.687H37.7357ZM19.4588 110.687V107.475H18.4588V110.687H19.4588ZM19.4588 107.475C19.4588 106.783 20.0195 106.222 20.7112 106.222V105.222C19.4672 105.222 18.4588 106.231 18.4588 107.475H19.4588ZM20.7112 106.222H36.4833V105.222H20.7112V106.222ZM36.4833 106.222C37.175 106.222 37.7357 106.783 37.7357 107.475H38.7357C38.7357 106.231 37.7273 105.222 36.4833 105.222V106.222ZM37.7357 107.475V110.687H38.7357V107.475H37.7357ZM53.9873 76.3462V41.1932H52.9873V76.3462H53.9873ZM75.6274 76.3462V41.1932H74.6274V76.3462H75.6274ZM9.97955 95.7917V54.4896H8.97955V95.7917H9.97955Z" fill="white"/>
<path d="M26.509 34.8542H64.9629C67.9747 34.8542 70.4163 32.3714 70.4163 29.3088C70.4163 26.2463 67.9747 23.7635 64.9629 23.7635H61.4671L62.4586 22.0678C64.9699 17.7731 62.5283 12.2461 57.703 11.3025C54.9001 10.7544 52.0474 11.9686 50.4641 14.3834L48.6025 17.2229V15.5167C48.6025 10.4909 44.5958 6.41666 39.6532 6.41666C34.7107 6.41666 30.7039 10.4909 30.7039 15.5167V19.4979H26.509C22.3387 19.4979 18.958 22.9355 18.958 27.176C18.958 31.4165 22.3387 34.8542 26.509 34.8542Z" fill="#364684" stroke="white" stroke-linecap="round" stroke-linejoin="round"/>
</svg>
