<svg width="30" height="30" viewBox="0 0 30 30" fill="none" xmlns="http://www.w3.org/2000/svg">
<path d="M15 0C12.0333 0 9.13319 0.879735 6.66645 2.52796C4.19972 4.17618 2.27713 6.51886 1.14181 9.25975C0.00649903 12.0006 -0.290551 15.0166 0.288228 17.9264C0.867006 20.8361 2.29562 23.5088 4.39341 25.6066C6.49119 27.7044 9.16394 29.133 12.0737 29.7118C14.9834 30.2906 17.9994 29.9935 20.7403 28.8582C23.4812 27.7229 25.8238 25.8003 27.4721 23.3336C29.1203 20.8668 30 17.9667 30 15C29.9956 11.0231 28.4139 7.21032 25.6018 4.39822C22.7897 1.58612 18.9769 0.0043674 15 0ZM15.6 28.7865V18H19.8C19.9591 18 20.1118 17.9368 20.2243 17.8243C20.3368 17.7117 20.4 17.5591 20.4 17.4C20.4 17.2409 20.3368 17.0883 20.2243 16.9757C20.1118 16.8632 19.9591 16.8 19.8 16.8H15.6V12.6C15.6 11.8044 15.9161 11.0413 16.4787 10.4787C17.0413 9.91607 17.8044 9.6 18.6 9.6H21C21.1591 9.6 21.3118 9.53679 21.4243 9.42426C21.5368 9.31174 21.6 9.15913 21.6 9C21.6 8.84087 21.5368 8.68826 21.4243 8.57574C21.3118 8.46321 21.1591 8.4 21 8.4H18.6C17.4861 8.4 16.4178 8.8425 15.6302 9.63015C14.8425 10.4178 14.4 11.4861 14.4 12.6V16.8H10.2C10.0409 16.8 9.88826 16.8632 9.77574 16.9757C9.66322 17.0883 9.60001 17.2409 9.60001 17.4C9.60001 17.5591 9.66322 17.7117 9.77574 17.8243C9.88826 17.9368 10.0409 18 10.2 18H14.4V28.7865C10.7954 28.6296 7.39558 27.0673 4.92888 24.4342C2.46219 21.8011 1.12482 18.3066 1.20327 14.6995C1.28172 11.0923 2.76976 7.65932 5.34861 5.13596C7.92745 2.61259 11.392 1.19955 15 1.19955C18.608 1.19955 22.0726 2.61259 24.6514 5.13596C27.2303 7.65932 28.7183 11.0923 28.7967 14.6995C28.8752 18.3066 27.5378 21.8011 25.0711 24.4342C22.6044 27.0673 19.2046 28.6296 15.6 28.7865Z" fill="white"/>
</svg>
