<svg width="30" height="30" viewBox="0 0 26 26" fill="none" xmlns="http://www.w3.org/2000/svg">
<path d="M24 0.5H2C1.60218 0.5 1.22064 0.658035 0.93934 0.93934C0.658035 1.22064 0.5 1.60218 0.5 2V24C0.5 24.3978 0.658035 24.7794 0.93934 25.0607C1.22064 25.342 1.60218 25.5 2 25.5H24C24.3978 25.5 24.7794 25.342 25.0607 25.0607C25.342 24.7794 25.5 24.3978 25.5 24V2C25.5 1.60218 25.342 1.22064 25.0607 0.93934C24.7794 0.658035 24.3978 0.5 24 0.5ZM24.5 24C24.5 24.1326 24.4473 24.2598 24.3536 24.3536C24.2598 24.4473 24.1326 24.5 24 24.5H2C1.86739 24.5 1.74021 24.4473 1.64645 24.3536C1.55268 24.2598 1.5 24.1326 1.5 24V2C1.5 1.86739 1.55268 1.74021 1.64645 1.64645C1.74021 1.55268 1.86739 1.5 2 1.5H24C24.1326 1.5 24.2598 1.55268 24.3536 1.64645C24.4473 1.74021 24.5 1.86739 24.5 2V24ZM8.5 11V19C8.5 19.1326 8.44732 19.2598 8.35355 19.3536C8.25979 19.4473 8.13261 19.5 8 19.5C7.86739 19.5 7.74021 19.4473 7.64645 19.3536C7.55268 19.2598 7.5 19.1326 7.5 19V11C7.5 10.8674 7.55268 10.7402 7.64645 10.6464C7.74021 10.5527 7.86739 10.5 8 10.5C8.13261 10.5 8.25979 10.5527 8.35355 10.6464C8.44732 10.7402 8.5 10.8674 8.5 11ZM19.5 14.5V19C19.5 19.1326 19.4473 19.2598 19.3536 19.3536C19.2598 19.4473 19.1326 19.5 19 19.5C18.8674 19.5 18.7402 19.4473 18.6464 19.3536C18.5527 19.2598 18.5 19.1326 18.5 19V14.5C18.5 13.7044 18.1839 12.9413 17.6213 12.3787C17.0587 11.8161 16.2956 11.5 15.5 11.5C14.7044 11.5 13.9413 11.8161 13.3787 12.3787C12.8161 12.9413 12.5 13.7044 12.5 14.5V19C12.5 19.1326 12.4473 19.2598 12.3536 19.3536C12.2598 19.4473 12.1326 19.5 12 19.5C11.8674 19.5 11.7402 19.4473 11.6464 19.3536C11.5527 19.2598 11.5 19.1326 11.5 19V11C11.5 10.8674 11.5527 10.7402 11.6464 10.6464C11.7402 10.5527 11.8674 10.5 12 10.5C12.1326 10.5 12.2598 10.5527 12.3536 10.6464C12.4473 10.7402 12.5 10.8674 12.5 11V11.8588C13.0372 11.2497 13.747 10.8185 14.5351 10.6226C15.3232 10.4267 16.1523 10.4754 16.9121 10.762C17.6719 11.0487 18.3265 11.5599 18.7887 12.2276C19.251 12.8953 19.4991 13.6879 19.5 14.5ZM9 7.5C9 7.69778 8.94135 7.89112 8.83147 8.05557C8.72159 8.22002 8.56541 8.34819 8.38268 8.42388C8.19996 8.49957 7.99889 8.51937 7.80491 8.48079C7.61093 8.4422 7.43275 8.34696 7.29289 8.20711C7.15304 8.06725 7.0578 7.88907 7.01921 7.69509C6.98063 7.50111 7.00043 7.30004 7.07612 7.11732C7.15181 6.93459 7.27998 6.77841 7.44443 6.66853C7.60888 6.55865 7.80222 6.5 8 6.5C8.26522 6.5 8.51957 6.60536 8.70711 6.79289C8.89464 6.98043 9 7.23478 9 7.5Z" fill="white"/>
</svg>
