<svg width="32" height="30" viewBox="0 0 34 30" fill="none" xmlns="http://www.w3.org/2000/svg">
<path d="M33.8666 4.31638C33.8172 4.19707 33.7335 4.09511 33.6261 4.02342C33.5187 3.95173 33.3924 3.91353 33.2633 3.91367H27.9156C27.3069 2.74358 26.3913 1.76121 25.2668 1.07188C24.1424 0.382553 22.8515 0.0122665 21.5326 0.000718472C20.5992 -0.0126832 19.6725 0.161525 18.8077 0.513008C17.9428 0.864492 17.1574 1.38609 16.4979 2.04686C15.8158 2.71487 15.2743 3.51275 14.9055 4.39342C14.5368 5.27408 14.3481 6.2197 14.3507 7.17446V8.99398C7.23404 7.46304 1.30755 1.55938 1.24397 1.49416C1.15663 1.40603 1.04596 1.34465 0.92496 1.31722C0.803957 1.28978 0.677638 1.29743 0.560832 1.33927C0.443775 1.38139 0.341208 1.45612 0.265232 1.55463C0.189255 1.65314 0.14304 1.77132 0.132038 1.89524C-0.552728 9.49614 1.64341 14.565 3.60641 17.4802C4.67352 19.0981 6.01091 20.5204 7.56012 21.685C5.00366 25.0257 0.474421 26.7604 0.427139 26.7783C0.334179 26.8125 0.250224 26.8674 0.181643 26.9389C0.113062 27.0103 0.0616565 27.0965 0.0313282 27.1907C0.000999869 27.285 -0.00745522 27.385 0.00660455 27.483C0.0206643 27.5811 0.0568693 27.6746 0.112473 27.7566C0.156494 27.8218 0.567354 28.4087 1.66787 28.9565C3.05697 29.6478 4.91073 30 7.17698 30C18.4414 30 27.839 21.2676 28.6803 10.0717L33.7247 5.02723C33.816 4.93606 33.8782 4.81986 33.9035 4.69332C33.9287 4.56679 33.9159 4.4356 33.8666 4.31638ZM27.5846 9.32169C27.4725 9.43419 27.4052 9.58376 27.3955 9.74233C26.7173 20.3709 17.8365 28.6957 7.17698 28.6957C4.26672 28.6957 2.67219 28.0615 1.87819 27.5756C3.56891 26.7898 7.00579 24.9115 9.02422 21.8839C9.07329 21.8098 9.10671 21.7265 9.12241 21.639C9.13811 21.5515 9.13576 21.4617 9.11552 21.3752C9.09589 21.2883 9.05834 21.2064 9.00529 21.1348C8.95223 21.0633 8.88482 21.0035 8.80737 20.9595C8.78618 20.9464 6.62427 19.6551 4.6466 16.696C2.93795 14.1379 1.04506 9.80103 1.33853 3.36749C3.48576 5.26201 8.75357 9.39995 14.8953 10.4271C14.9895 10.4429 15.086 10.4378 15.178 10.4121C15.27 10.3865 15.3552 10.341 15.4277 10.2787C15.5002 10.2165 15.5581 10.1392 15.5974 10.0521C15.6367 9.96506 15.6563 9.87044 15.655 9.77494V7.17446C15.6537 6.39252 15.8087 5.61819 16.1108 4.89696C16.4129 4.17573 16.856 3.52214 17.4142 2.97456C17.9532 2.43596 18.5945 2.01076 19.3005 1.72402C20.0064 1.43728 20.7626 1.29482 21.5245 1.30504C23.8396 1.33438 26.0064 2.74957 26.9145 4.82832C26.9649 4.9429 27.0472 5.04057 27.1516 5.10966C27.2559 5.17876 27.378 5.21636 27.5031 5.21798H31.6883L27.5846 9.32169Z" fill="white"/>
</svg>
