<svg width="123" height="120" viewBox="0 0 123 120" fill="none" xmlns="http://www.w3.org/2000/svg">
<path d="M32.947 62.3848L33.0934 62.2383V62.0312V51.0209H107.75C108.221 51.0209 108.604 51.4033 108.604 51.8751V116.234C108.604 117.808 107.328 119.083 105.754 119.083H12.2453C10.6714 119.083 9.39551 117.808 9.39551 116.234V64.5625H30.5622H30.7693L30.9157 64.416L32.947 62.3848ZM115.573 30.3148L115.198 29.8901L114.823 30.3148C114.418 30.7741 113.826 31.0626 113.166 31.0626C111.947 31.0626 110.958 30.0739 110.958 28.8542C110.958 27.6346 111.947 26.6459 113.166 26.6459C113.826 26.6459 114.418 26.9344 114.823 27.3937L115.198 27.8184L115.573 27.3937C115.978 26.9344 116.569 26.6459 117.229 26.6459C118.449 26.6459 119.437 27.6346 119.437 28.8542C119.437 30.0739 118.449 31.0626 117.229 31.0626C116.569 31.0626 115.978 30.7741 115.573 30.3148ZM24.8806 24.0834H24.3806V24.5834V34.0279V34.5279H24.8806H27.9716C28.4003 34.5279 28.708 34.8541 28.708 35.2084V35.7987C28.708 36.153 28.4003 36.4792 27.9716 36.4792H2.00692C1.57818 36.4792 1.27051 36.153 1.27051 35.7987V35.2084C1.27051 34.8541 1.57818 34.5279 2.00692 34.5279L5.09795 34.5279H5.59795V34.0279V24.5834V24.0834H5.09795H1.99879C1.2562 24.0834 1.01389 23.1583 1.60299 22.7858L14.5934 14.5725C14.8341 14.4204 15.1444 14.4204 15.3851 14.5725L28.3755 22.7858C28.9646 23.1583 28.7223 24.0834 27.9797 24.0834H24.8806ZM7.68898 34.0279V34.5279H8.18898H10.6618H11.1618V34.0279V24.5834V24.0834H10.6618H8.18898H7.68898V24.5834V34.0279ZM13.2528 34.0279V34.5279H13.7528H16.2257H16.7257V34.0279V24.5834V24.0834H16.2257H13.7528H13.2528V24.5834V34.0279ZM19.3167 24.0834H18.8167V24.5834V34.0279V34.5279H19.3167H21.7895H22.2895V34.0279V24.5834V24.0834H21.7895H19.3167ZM52.7288 9.39591V0.916748H122.145V9.39591H52.7288Z" fill="white" stroke="black"/>
</svg>
